<?xml version="1.0" encoding="UTF-8"?>
<svg version="1.1" xmlns="http://www.w3.org/2000/svg" width="709" height="537">
<path d="M30 28 C25.36992595 35.12163895 22.87926984 40.79648168 22.86577892 49.28674412 C22.86132108 50.58723117 22.85686324 51.88771823 22.85227031 53.22761399 C22.8523596 54.67424938 22.85254945 56.12088477 22.85282898 57.56752014 C22.84952956 59.10168423 22.84580383 60.63584744 22.8416875 62.17000955 C22.83166816 66.39252375 22.82795081 70.61502374 22.82529819 74.83754814 C22.82139492 79.38920246 22.81181657 83.94084553 22.80308533 88.49249268 C22.78332112 99.48837661 22.77325456 110.48426146 22.76435754 121.48015872 C22.75997439 126.65846435 22.75460763 131.83676895 22.74936867 137.01507378 C22.7323561 154.22940515 22.71786211 171.44373589 22.71061993 188.65807438 C22.70871003 193.12548384 22.7067897 197.59289329 22.70483398 202.06030273 C22.70435024 203.17065462 22.7038665 204.28100651 22.7033681 205.42500543 C22.69506848 223.41046163 22.66973281 241.39585131 22.63725331 259.38127846 C22.60417839 277.84699219 22.58617075 296.31267212 22.58297569 314.77841562 C22.58081095 325.1460361 22.57206757 335.51355959 22.54651451 345.8811512 C22.5248016 354.71108968 22.51676001 363.54090761 22.52648129 372.37086976 C22.53102432 376.87452217 22.52913962 381.37792586 22.50971985 385.88154411 C22.49207547 390.00916179 22.4930961 394.13634954 22.50861714 398.26397186 C22.51099129 399.75260329 22.50667966 401.24126459 22.49478849 402.72985042 C22.40388727 414.86665865 23.96563077 424.98390027 32.58203125 433.98828125 C41.56549699 441.46240864 50.65293893 443.15516165 61.90242004 443.12025452 C62.9071625 443.12110894 63.91190495 443.12196337 64.94709414 443.12284368 C68.31736795 443.12449219 71.6875921 443.11898736 75.05786133 443.11352539 C77.47236123 443.11324336 79.88686123 443.11340157 82.30136108 443.1139679 C87.50146274 443.11419569 92.70155315 443.11135729 97.90165138 443.10573006 C105.42009913 443.09759935 112.93854081 443.09499822 120.45699247 443.09374207 C132.65549517 443.09155402 144.85399117 443.08490062 157.05249023 443.07543945 C168.90144823 443.06625895 180.7504044 443.05918123 192.59936523 443.05493164 C193.69511568 443.05453756 193.69511568 443.05453756 194.8130025 443.05413551 C198.47774678 443.05283046 202.14249106 443.05156676 205.80723536 443.05032361 C236.20482836 443.03995869 266.60241325 443.02227269 297 443 C296.98694824 443.73750488 296.97389648 444.47500977 296.96044922 445.23486328 C296.95029785 446.21181152 296.94014648 447.18875977 296.9296875 448.1953125 C296.91663574 449.15969238 296.90358398 450.12407227 296.89013672 451.11767578 C297.11888028 457.11889025 298.58171479 461.48276466 302.6875 465.875 C310.23107054 470.71427167 316.59697004 471.45880969 325.3671875 471.43359375 C326.44195343 471.4388356 327.51671936 471.44407745 328.62405396 471.44947815 C330.88819519 471.45587589 333.15236976 471.45459065 335.41650391 471.44604492 C338.85770632 471.43754273 342.29724274 471.4663175 345.73828125 471.49804688 C347.94791617 471.49965945 350.15755401 471.49908027 352.3671875 471.49609375 C353.38416718 471.50732773 354.40114685 471.51856171 355.44894409 471.53013611 C363.07694219 471.4567028 370.4622979 470.19962818 376.2890625 464.9296875 C376.72992188 464.25164062 377.17078125 463.57359375 377.625 462.875 C378.09164063 462.19179688 378.55828125 461.50859375 379.0390625 460.8046875 C380.15666438 459.04653959 380.15666438 459.04653959 380 457 C395.05383754 456.71506932 406.18606068 457.91324479 419 466 C420.72845175 467.06366262 422.45753185 468.12630548 424.1875 469.1875 C424.94933594 469.65929687 425.71117187 470.13109375 426.49609375 470.6171875 C436.15698911 475.95253377 445.53588848 478.1644294 456.48388672 478.11352539 C457.7287812 478.11374443 457.7287812 478.11374443 458.99882507 478.1139679 C461.72580635 478.11327453 464.45271824 478.10550923 467.1796875 478.09765625 C469.07683271 478.09579002 470.9739784 478.09436709 472.87112427 478.09336853 C477.85234926 478.08955948 482.83354487 478.07974301 487.8147583 478.06866455 C492.90254316 478.05841572 497.99033278 478.05386348 503.078125 478.04882812 C513.05209621 478.03811925 523.02604566 478.02106225 533 478 C532.99442581 478.75481659 532.98885162 479.50963318 532.98310852 480.287323 C532.97877304 481.2777359 532.97443756 482.2681488 532.9699707 483.28857422 C532.96439651 484.27026581 532.95882233 485.2519574 532.95307922 486.26339722 C533.1694285 498.88173111 539.28869765 508.84971 547.6875 517.7734375 C550.89931843 520.86589781 553.96921918 523.10358613 558 525 C558.81339844 525.39058594 559.62679687 525.78117187 560.46484375 526.18359375 C572.67167455 531.13138351 587.94868775 530.74639756 600.23828125 526.26171875 C613.28608866 520.30069783 620.99295095 510.92221669 626.3125 497.75 C628.29220639 489.83117444 628.10153901 482.13440276 628 474 C629.670625 473.938125 629.670625 473.938125 631.375 473.875 C639.81273167 472.7848152 646.3854098 467.38787613 651.59765625 460.94921875 C657.72173954 452.43691357 657.78573393 443.1737238 657 433 C655.99652603 429.15700144 654.67551016 425.59785887 653 422 C653.73605469 421.39414062 654.47210937 420.78828125 655.23046875 420.1640625 C663.47189228 413.08754296 669.3345515 405.90933072 670.2734375 394.75 C670.4946153 386.58343522 669.76067612 380.85857702 665.99609375 373.390625 C665 371 665 371 666 368 C667.64429829 366.31126121 669.31384218 364.64694485 671 363 C677.04689664 356.95310336 679.21325784 348.16285086 679.4375 339.8125 C679.0914003 331.24932354 676.79393759 325.30829253 671.20703125 318.82421875 C670 317 670 317 670 313 C671.16403154 311.58428597 672.33275736 310.16675598 673.61328125 308.85546875 C679.95981491 300.36362794 679.2215438 289.06291175 678 279 C675.48314019 270.33379121 670.30989823 263.29884043 662.6484375 258.5390625 C653.95270982 253.88159845 646.41486974 252.88841375 636.6875 252.95703125 C635.43356445 252.96168396 635.43356445 252.96168396 634.15429688 252.96643066 C632.1028499 252.97448992 630.05142046 252.98681914 628 253 C628.01632252 245.59799462 628.07126777 238.19698472 628.15258789 230.79541016 C628.17573028 228.2795253 628.19015472 225.76354408 628.19555664 223.24755859 C628.20487304 219.62276414 628.24592711 215.99947762 628.29296875 212.375 C628.2890361 211.25697998 628.28510345 210.13895996 628.28105164 208.98706055 C628.4090105 202.07879052 629.40808535 197.30291281 634 192 C636.98046875 189.3828125 636.98046875 189.3828125 640.1875 187.125 C659.5398324 172.96663356 671.10008898 153.66252904 675.53051758 130.18920898 C679.55000446 102.88470706 673.36155177 78.05859461 657 56 C650.7226995 48.02333281 643.59301538 41.46232837 635 36 C634.278125 35.53464844 633.55625 35.06929687 632.8125 34.58984375 C627.84986558 31.73051337 624.54952741 31.52012602 619 33 C616.06912793 35.25451698 615.17185712 36.48442865 614 40 C613.89795415 41.97698882 613.85422827 43.9571829 613.84228516 45.93676758 C613.83202301 47.15846146 613.82176086 48.38015533 613.81118774 49.63887024 C613.80774982 50.29130518 613.8043119 50.94374012 613.80076981 51.61594582 C613.78895227 53.66363212 613.76949151 55.71111022 613.74765015 57.75871277 C613.68613623 63.58003765 613.63205201 69.401341 613.59863281 75.22290039 C613.57762862 78.7862224 613.54227948 82.34916385 613.49787521 85.91226768 C613.47691867 87.92285948 613.4716761 89.9335953 613.46670532 91.94429016 C613.45013885 93.17544052 613.43357239 94.40659088 613.41650391 95.67504883 C613.40841705 96.75409988 613.4003302 97.83315094 613.39199829 98.94490051 C612.73538843 104.06229131 611.03127533 107.173085 607.0234375 110.38671875 C605.8169029 111.16867917 604.60004952 111.93487691 603.375 112.6875 C602.02975243 113.54135876 600.68470853 114.39553846 599.33984375 115.25 C598.63456543 115.69214844 597.92928711 116.13429688 597.20263672 116.58984375 C594.914111 118.05498724 592.67690912 119.58031471 590.44140625 121.125 C589.31436279 121.89130737 589.31436279 121.89130737 588.16455078 122.6730957 C586.70567725 123.6651361 585.25444312 124.66852708 583.81201172 125.68432617 C580.66522841 127.78557996 578.77818546 128.98014833 574.9375 129.078125 C571.26561691 127.73046578 568.23052219 125.80727001 565.0625 123.5625 C563.74529323 122.65161803 562.4275689 121.7414841 561.109375 120.83203125 C560.43583984 120.36361816 559.76230469 119.89520508 559.06835938 119.41259766 C557.01229683 118.00839819 554.92947575 116.6595137 552.828125 115.32421875 C552.15515381 114.89230225 551.48218262 114.46038574 550.78881836 114.01538086 C549.50591929 113.1939768 548.21790741 112.38048396 546.92407227 111.57641602 C542.94044609 108.99189575 539.72435793 106.47761738 538 102 C537.41623011 97.34361351 537.46680355 92.71491077 537.49609375 88.02734375 C537.48871969 86.65782879 537.47916795 85.28832399 537.46754456 83.9188385 C537.44092126 80.32534798 537.43524602 76.73218932 537.43664551 73.13861084 C537.43887941 67.38423045 537.42467107 61.6302598 537.38105965 55.87603951 C537.37125376 53.87253599 537.38034789 51.86896868 537.38975525 49.86546326 C537.37943016 48.03314903 537.37943016 48.03314903 537.36889648 46.16381836 C537.37033913 44.55548378 537.37033913 44.55548378 537.37181091 42.91465759 C536.86939267 38.97615796 535.47127397 36.1443242 532.3125 33.6875 C527.43695751 32.23801439 523.96842191 32.0584529 519.38671875 34.25 C512.58041575 38.40887256 506.67695764 43.42185017 501 49 C500.1646875 49.81082031 499.329375 50.62164062 498.46875 51.45703125 C481.49973732 68.92359214 474.57855919 91.72494275 474.63208008 115.66723633 C475.01834565 139.63217744 483.90422604 161.99174707 501 179 C505.22427453 183.02964072 509.56332436 186.73021889 514.3125 190.125 C518.75195831 193.37058008 521.23990491 196.71971474 523 202 C523.1529647 204.51054905 523.25695178 206.99888525 523.31640625 209.51171875 C523.33718735 210.23994339 523.35796844 210.96816803 523.37937927 211.71846008 C523.44468746 214.04137875 523.50367237 216.36440906 523.5625 218.6875 C523.60570305 220.26368335 523.64931792 221.83985548 523.69335938 223.41601562 C523.8003496 227.27722975 523.90166961 231.13855603 524 235 C523.23445801 234.98952637 522.46891602 234.97905273 521.68017578 234.96826172 C518.16181818 234.92630696 514.64351348 234.90054937 511.125 234.875 C509.31902344 234.84986328 509.31902344 234.84986328 507.4765625 234.82421875 C486.90937231 234.71244054 473.63617184 242.35773705 459 256 C458.33645508 256.61536621 457.67291016 257.23073242 456.98925781 257.86474609 C453.5414426 261.06837486 450.1103285 264.28900599 446.69140625 267.5234375 C442.96761242 271.04187854 439.18240591 274.48508355 435.3515625 277.88671875 C433.65874569 279.40800429 431.98950526 280.95567318 430.3359375 282.51953125 C419.27708499 292.90862227 408.18616499 300.20157481 393 302 C393.0018986 301.45440453 393.0037972 300.90880907 393.00575334 300.3466804 C393.11774746 267.97961741 393.20348507 235.61260589 393.25532665 203.24539368 C393.26157986 199.35532723 393.2680515 195.46526118 393.2746582 191.57519531 C393.27596976 190.8007832 393.27728131 190.02637108 393.2786326 189.22849193 C393.30036389 176.70440927 393.33977278 164.18044186 393.38576398 151.65642747 C393.43259215 138.7968356 393.46030881 125.93730391 393.47044247 113.07763028 C393.4772885 105.14833913 393.49887719 97.21937379 393.53958233 89.29018298 C393.5692431 83.20061205 393.57225816 77.11131888 393.56553841 71.02166748 C393.56691045 68.53044891 393.57680936 66.03921764 393.59602737 63.54807281 C394.02891428 42.96133636 394.02891428 42.96133636 384.1875 25.5 C377.80613502 19.69766247 371.13668058 16.88171334 362.53818321 16.86577892 C360.86345753 16.85909216 360.86345753 16.85909216 359.154899 16.85227031 C357.92826811 16.85245467 356.70163722 16.85263903 355.43783569 16.85282898 C354.1347369 16.84915229 352.8316381 16.8454756 351.48905146 16.8416875 C347.86888983 16.83167521 344.24874478 16.82795195 340.62857127 16.82529819 C336.72520287 16.82139285 332.82184758 16.81181467 328.91848755 16.80308533 C319.49029122 16.78332742 310.06209384 16.77325556 300.63388199 16.76435754 C296.19313197 16.75997354 291.75238314 16.75460702 287.31163406 16.74936867 C272.54813828 16.73235706 257.78464323 16.71786309 243.02113914 16.71061993 C239.19036228 16.70871006 235.35958543 16.70678972 231.52880859 16.70483398 C230.57669698 16.70435024 229.62458536 16.7038665 228.64362188 16.7033681 C213.22146255 16.69506853 197.79938081 16.66973253 182.37725537 16.63725331 C166.5410851 16.6041742 150.70495425 16.5861704 134.86874926 16.58297569 C125.97836218 16.58081138 117.08808823 16.57207433 108.19773483 16.54651451 C100.62599482 16.52479589 93.05439543 16.5167628 85.48262779 16.52648129 C81.62109307 16.53102265 77.75984842 16.52914963 73.89835358 16.50971985 C69.70672094 16.48881157 65.51573015 16.49908413 61.32406616 16.51225281 C60.1108196 16.50128356 58.89757304 16.49031432 57.64756143 16.47901267 C46.60486689 16.56270991 37.35690601 19.39856385 30 28 Z " fill="#064367" transform="translate(0,0)"/><path d="M0 0 C1.91372387 -0.01298157 1.91372387 -0.01298157 3.86610883 -0.02622539 C7.39633965 -0.04928767 10.92557442 -0.03504577 14.45578444 -0.01451623 C18.26704639 0.00113449 22.0781596 -0.01781443 25.8894043 -0.03231812 C33.35092916 -0.05513462 40.81207923 -0.04567308 48.27359659 -0.02481725 C54.33747945 -0.00852922 60.40126006 -0.00433466 66.46516228 -0.00878334 C67.32839422 -0.00941402 68.19162616 -0.01004469 69.08101664 -0.01069448 C70.83467554 -0.01204054 72.58833442 -0.01342011 74.34199326 -0.01483283 C90.78269948 -0.02676742 107.22320027 -0.00270862 123.66385972 0.03418525 C137.77096925 0.06508336 151.87784237 0.06744632 165.98497009 0.04838562 C182.36860401 0.02627452 198.75210541 0.02012794 215.13574594 0.04070824 C216.88262616 0.04287118 218.62950639 0.04502028 220.37638664 0.04715538 C221.23587986 0.04822175 222.09537308 0.04928811 222.98091154 0.05038679 C229.03807054 0.05685659 235.09516134 0.05209013 241.15231514 0.04313087 C248.53312812 0.03259632 255.91366381 0.04009269 263.29442555 0.07058666 C267.06032972 0.08571705 270.82579616 0.09287705 274.59171295 0.07839584 C278.67311571 0.06298428 282.75337615 0.08628289 286.8347168 0.11352539 C288.02644078 0.1030539 289.21816476 0.09258241 290.44600159 0.08179361 C299.37256638 0.19317034 299.37256638 0.19317034 303.07381344 3.17027569 C305.87190546 6.34247359 306.47782956 7.71628986 306.49253178 11.81190681 C306.49800622 12.66583743 306.50348066 13.51976805 306.509121 14.39957535 C306.51058816 15.8149239 306.51058816 15.8149239 306.51208496 17.25886536 C306.51702294 18.25696098 306.52196092 19.25505661 306.52704853 20.28339756 C306.54248449 23.64915029 306.55080061 27.01488386 306.55918884 30.38066101 C306.56876258 32.78486807 306.57877235 35.18907342 306.58918762 37.59327698 C306.61067233 42.78032338 306.62910598 47.96737123 306.64479256 53.15443802 C306.66747811 60.65412141 306.69562274 68.15377645 306.72511183 75.65343581 C306.77280389 87.82031087 306.81606369 99.98719751 306.85655212 112.15409851 C306.89589885 123.97507122 306.93732309 135.79603364 306.98155212 147.61698914 C306.9842764 148.34529061 306.98700067 149.07359208 306.98980749 149.8239633 C307.00348684 153.47753555 307.01720714 157.13110764 307.0309478 160.78467965 C307.14493792 191.10815603 307.25166808 221.43165418 307.35386658 251.75517273 C306.25818328 251.43082717 305.16249998 251.10648161 304.03361416 250.7723074 C300.70325009 249.85174731 298.06554091 249.48768796 294.63731384 249.44877625 C293.56252274 249.43278885 292.48773163 249.41680145 291.38037109 249.40032959 C290.23853867 249.39496689 289.09670624 249.38960419 287.92027283 249.38407898 C286.72836838 249.37505051 285.53646393 249.36602203 284.30844116 249.35671997 C281.79455566 249.34225043 279.28063279 249.33333896 276.76670837 249.32963562 C272.93248434 249.31772281 269.09986165 249.26848656 265.26597595 249.21806335 C262.81741606 249.2086001 260.36884633 249.2013646 257.92027283 249.19657898 C256.21056053 249.1672805 256.21056053 249.1672805 254.46630859 249.13739014 C247.58227653 249.17620412 242.56235709 250.00004673 237.35386658 254.75517273 C234.07950263 259.82515561 233.24079047 264.8079221 233.19564819 270.76025391 C233.18096497 272.23462669 233.18096497 272.23462669 233.16598511 273.73878479 C233.16022964 274.80549408 233.15447418 275.87220337 233.14854431 276.97123718 C233.13864471 278.1033815 233.12874512 279.23552582 233.11854553 280.40197754 C233.08698062 284.14078181 233.06219278 287.87959878 233.03746033 291.61845398 C233.01688649 294.21205982 232.9958899 296.80566234 232.9744873 299.39926147 C232.92494945 305.52603551 232.87967262 311.65282744 232.83646494 317.77964896 C232.7870232 324.75668791 232.73213087 331.73368066 232.67678535 338.71067488 C232.56308968 353.05879741 232.45622377 367.40696506 232.35386658 381.75517273 C201.26151697 381.89206386 170.16924709 381.99823862 139.07666766 382.06156471 C135.40547631 382.0690689 131.73428555 382.07683484 128.06309509 382.08476257 C126.96679842 382.08712337 126.96679842 382.08712337 125.84835435 382.08953185 C114.0160137 382.11563605 102.18384804 382.16294137 90.35161119 382.21808951 C78.20960506 382.27420922 66.06769056 382.30752762 53.92556006 382.3197037 C46.43379068 382.32793436 38.94251594 382.3539242 31.45089883 382.40267153 C25.70518093 382.43815277 19.9597796 382.44190119 14.213974 382.43381882 C11.85771196 382.43547059 9.50143134 382.44742036 7.14528084 382.47040558 C3.92842941 382.50025012 0.71369586 382.49308572 -2.50320435 382.47669983 C-3.43609679 382.49417688 -4.36898923 382.51165393 -5.33015114 382.52966058 C-10.56639212 382.45754175 -14.58333647 381.77390445 -18.38516539 377.96401656 C-21.29524348 372.86641862 -20.60045391 366.76881856 -20.53501892 361.06535339 C-20.54308622 359.54238131 -20.55420489 358.01942284 -20.56810963 356.49649286 C-20.59734532 352.31408088 -20.5828839 348.13278619 -20.5612061 343.95037007 C-20.54538004 339.43899398 -20.56980844 334.92781119 -20.58906555 330.41647339 C-20.62021139 321.57984589 -20.6134604 312.74363429 -20.59317707 303.90699041 C-20.57737587 296.72608548 -20.5752211 289.54529721 -20.58284378 282.36437988 C-20.58391641 281.34281686 -20.58498904 280.32125384 -20.58609418 279.26873437 C-20.58833223 277.19352492 -20.59060172 275.11831551 -20.59290232 273.04310614 C-20.61286881 253.57842037 -20.58990369 234.11396527 -20.55229975 214.64931732 C-20.52102483 197.94343875 -20.52645685 181.23790063 -20.55873108 164.5320282 C-20.5961818 145.1375758 -20.61094614 125.74332565 -20.58944523 106.34884214 C-20.58721536 104.28121665 -20.58501477 102.21359113 -20.58284378 100.14596558 C-20.58176385 99.12862309 -20.58068392 98.1112806 -20.57957127 97.06310955 C-20.57352429 89.88984271 -20.58373542 82.71670402 -20.60020065 75.54345703 C-20.61982206 66.80295744 -20.61454496 58.06289794 -20.57723545 49.32244885 C-20.55882292 44.8617805 -20.55165954 40.4018462 -20.57477951 35.94118309 C-20.59562022 31.858561 -20.58421085 27.77735407 -20.54693665 23.69486064 C-20.53910918 22.21716452 -20.54311466 20.73934914 -20.56006716 19.26172954 C-20.69139981 6.86472441 -20.69139981 6.86472441 -16.88096142 2.88425732 C-11.74245953 -0.46391825 -5.9287454 -0.07011086 0 0 Z " fill="#42CDCD" transform="translate(64.64613342285156,38.24482727050781)"/>
<path d="M0 0 C1.00804687 0.56847656 2.01609375 1.13695313 3.0546875 1.72265625 C22.34581411 13.28093749 35.91348003 32.27635873 44.375 52.8125 C44.684375 53.54452637 44.99375 54.27655273 45.3125 55.03076172 C50.97884819 69.54461987 52.65534078 84.56575033 52.46655273 100.02880859 C52.43711782 102.65915216 52.44610671 105.28752424 52.45898438 107.91796875 C52.45275693 109.62500962 52.44437381 111.33204431 52.43359375 113.0390625 C52.43652939 113.80795807 52.43946503 114.57685364 52.44248962 115.36904907 C52.34847373 120.84526008 51.49299685 126.06451058 49 131 C46 133 46 133 42.5 132.875 C39 132 39 132 37.29077148 130.4453125 C35.4674197 126.99104894 35.70421669 123.79854996 35.84765625 120 C35.87932481 118.38331519 35.91022017 116.76661508 35.94042969 115.14990234 C35.97154846 113.88687286 35.97154846 113.88687286 36.0032959 112.59832764 C36.33758531 97.92715781 36.12935329 84.19284715 32 70 C31.73445312 68.94941406 31.46890625 67.89882812 31.1953125 66.81640625 C26.84963029 51.56513106 18.43971438 37.84742148 7 27 C6.27296875 26.26652344 5.5459375 25.53304687 4.796875 24.77734375 C-9.2924448 11.23594194 -28.25383004 4.5770225 -47.54296875 4.63208008 C-68.78636185 5.06574455 -88.21805286 15.0206312 -103 30 C-114.57117373 42.76451761 -125.47006148 60.61112681 -128 78 C-126.45551867 77.76802257 -124.91443651 77.51338442 -123.375 77.25 C-122.08722656 77.04117188 -122.08722656 77.04117188 -120.7734375 76.828125 C-116.69247615 75.60958443 -113.32322031 73.95302505 -110.87255859 70.3359375 C-109.83135094 68.37889521 -108.90356037 66.39915471 -108 64.375 C-107.31244742 62.92977293 -106.62234311 61.48575704 -105.9296875 60.04296875 C-105.4342041 58.99761963 -105.4342041 58.99761963 -104.92871094 57.93115234 C-96.42104151 40.24038863 -83.360795 30.03552975 -65.3828125 23.1640625 C-49.97187887 17.86099296 -31.45958982 19.89580368 -17.015625 26.8828125 C-0.54512933 35.31744924 11.47409115 47.1584586 17.95703125 64.7265625 C20.71577996 73.38510715 21.30751947 80.7773379 21.25 89.875 C21.25773438 91.09058594 21.26546875 92.30617188 21.2734375 93.55859375 C21.25982354 99.8686656 20.86835945 105.69411686 19.46289062 111.84619141 C18.13272517 118.03538954 17.95889256 124.61412878 20.5 130.4375 C26.41457786 136.49994231 32.90064959 140.13772421 40.55859375 143.703125 C43 145 43 145 44 147 C44.33676138 151.57218341 43.5878703 154.70104156 41.75 158.875 C41.29625 159.91269531 40.8425 160.95039063 40.375 162.01953125 C38.66524439 165.72562083 36.85159333 169.36294167 35 173 C34.67 173.99 34.34 174.98 34 176 C33.34 176 32.68 176 32 176 C31.9175 176.9075 31.835 177.815 31.75 178.75 C30.88130022 182.51436571 30.22517896 183.87817174 27 186 C21.17019019 185.70995971 16.89111987 183.79704605 11.875 181.0625 C10.76511719 180.46296509 10.76511719 180.46296509 9.6328125 179.85131836 C-7.82794937 170.15946659 -18.90049033 156.99416449 -29 140 C-29.71542969 140.81082031 -30.43085938 141.62164062 -31.16796875 142.45703125 C-41.91368667 154.47178468 -53.11361779 164.20986609 -67.25244141 172.03173828 C-68.82958386 172.90557831 -70.39051429 173.8085242 -71.94921875 174.71484375 C-83.60195224 181.10190688 -98.68215738 185.26113417 -112 185 C-108.117632 192.02256165 -108.117632 192.02256165 -102.0625 196.87109375 C-99.55725792 196.95427562 -97.45214286 196.54492063 -95 196 C-93.17662109 195.69449219 -93.17662109 195.69449219 -91.31640625 195.3828125 C-75.20700479 192.40108429 -61.00246532 184.84419226 -47.60546875 175.63061523 C-40.95943906 171.08866712 -35.07750942 169.132521 -27 170 C-20.169469 171.98706356 -15.40776436 176.52410277 -10 181 C-7.63583764 182.88886793 -5.25584739 184.75723347 -2.875 186.625 C-2.27655273 187.09824707 -1.67810547 187.57149414 -1.06152344 188.05908203 C2.16587291 190.60304022 5.4394081 193.02534173 8.8125 195.375 C11.15732582 197.13110346 11.92505967 197.83828666 13.1875 200.5625 C12.94345694 203.73505984 11.89525262 205.4729965 10 208 C6.92565314 209.53717343 4.3965117 209.23929157 1 209 C-8.74416679 204.41206371 -17.2839565 196.05390386 -25.49462891 189.17993164 C-27.5414367 187.57561408 -28.94907438 187.00888055 -31.53125 186.55859375 C-36.77067321 187.22532215 -40.2314761 190.08518534 -44.5 193.0625 C-57.17540937 201.57071457 -69.05190735 207.62935166 -84 211 C-82.0848421 211.81604999 -80.16781166 212.62770632 -78.25 213.4375 C-76.64898437 214.11619141 -76.64898437 214.11619141 -75.015625 214.80859375 C-68.94746463 217.20598871 -62.83791246 218.41557344 -56.54296875 216.09375 C-53.04681666 214.37595559 -49.73709959 212.47401174 -46.4609375 210.3671875 C-41.09929547 206.93108874 -36.53585814 204.30142096 -30 205 C-24.13905218 206.78234048 -19.25731173 210.6809881 -15 215 C-13.43064406 218.13871188 -13.64798897 220.53855822 -14 224 C-18.95396428 231.10068213 -28.08783252 233.04862493 -36.17407227 234.59204102 C-59.9894697 238.03009969 -82.73470427 233.58540127 -102.23266602 219.37817383 C-127.56722653 200.04677809 -142.94889997 170.66670023 -147.30859375 139.3359375 C-148.33664318 130.10056111 -148.40510774 120.84524242 -148.4375 111.5625 C-148.44689606 110.29779373 -148.44689606 110.29779373 -148.45648193 109.00753784 C-148.60609951 77.15566157 -138.94039852 46.42311743 -118 22 C-117.52175781 21.38898438 -117.04351562 20.77796875 -116.55078125 20.1484375 C-88.72885167 -14.76848271 -37.43950256 -21.5355356 0 0 Z " fill="#084164" transform="translate(258,78)"/>
<path d="M0 0 C0.70003647 -0.00671722 1.40007294 -0.01343445 2.12132263 -0.02035522 C4.42031074 -0.03925011 6.71900563 -0.04325495 9.01806641 -0.04541016 C10.62700518 -0.05184367 12.23594279 -0.05857243 13.84487915 -0.06558228 C17.21220612 -0.0775335 20.57943067 -0.08126529 23.94677734 -0.08007812 C28.24625639 -0.07987498 32.54507414 -0.10718178 36.84439659 -0.14162254 C40.16627985 -0.16393815 43.48800507 -0.16791426 46.8099556 -0.16685867 C48.39428614 -0.16920744 49.97862152 -0.1779899 51.56287766 -0.19352341 C68.35404219 -0.34275876 68.35404219 -0.34275876 73.74462891 4.29052734 C78.00319303 8.70264123 79.94563066 13.81778931 81.67431641 19.60302734 C81.91376984 20.37557861 82.15322327 21.14812988 82.39993286 21.9440918 C82.89857678 23.565734 83.39067865 25.1894012 83.87646484 26.81494141 C84.61950056 29.29009979 85.39149627 31.75490573 86.16650391 34.22021484 C86.65003977 35.80561509 87.13186955 37.39153691 87.61181641 38.97802734 C87.95694778 40.07207886 87.95694778 40.07207886 88.30905151 41.18823242 C89.68347587 45.88458345 89.88374717 49.41716814 88.74462891 54.29052734 C87.16650391 56.70458984 87.16650391 56.70458984 84.74462891 58.29052734 C82.00102177 58.64090142 79.7201256 58.76775313 76.99462891 58.66552734 C76.27525146 58.64901123 75.55587402 58.63249512 74.81469727 58.61547852 C66.23245766 58.33216238 58.66005314 56.63878709 51.74462891 51.29052734 C48.05270794 47.00266638 45.23649642 42.25462685 42.55712891 37.29052734 C40.99190108 34.32735763 40.99190108 34.32735763 38.93212891 32.79052734 C35.58218426 32.02482571 33.05443379 32.44803156 29.74462891 33.29052734 C26.03478235 36.78916977 25.58880415 41.57328094 24.55712891 46.35302734 C19.58363268 67.55684837 10.46790153 87.16303224 -8.06787109 99.79052734 C-16.95530198 105.1860173 -26.7597385 109.18951793 -36.35327148 113.15844727 C-41.24772003 115.13750516 -41.24772003 115.13750516 -44.25537109 119.29052734 C-44.81799625 123.06815337 -44.55004077 124.78052214 -42.63037109 128.10302734 C-39.69271897 130.80875957 -38.20662148 130.99853983 -34.25537109 131.29052734 C-12.99910546 126.64310009 10.45480258 113.81187673 22.90478516 95.59277344 C23.25412109 95.04314941 23.60345703 94.49352539 23.96337891 93.92724609 C24.55119141 93.05712891 25.13900391 92.18701172 25.74462891 91.29052734 C26.40462891 91.29052734 27.06462891 91.29052734 27.74462891 91.29052734 C28.01726562 92.28632813 28.01726562 92.28632813 28.29541016 93.30224609 C29.88911046 98.94391021 29.88911046 98.94391021 32.49462891 104.16552734 C33.74462891 106.29052734 33.74462891 106.29052734 33.50634766 108.17724609 C32.6252324 110.62177611 31.43993768 112.21196761 29.80712891 114.22802734 C24.64935587 120.60237583 24.40580842 126.17003354 24.43212891 134.10302734 C24.41601562 135.06273437 24.39990234 136.02244141 24.38330078 137.01123047 C24.37728513 145.82415292 26.56959169 152.15254498 31.74462891 159.29052734 C31.27412109 159.78681641 30.80361328 160.28310547 30.31884766 160.79443359 C29.69623047 161.47376953 29.07361328 162.15310547 28.43212891 162.85302734 C27.81724609 163.51431641 27.20236328 164.17560547 26.56884766 164.85693359 C22.14079059 170.76417033 21.28185578 176.10508119 21.43212891 183.22802734 C21.42890625 183.98792969 21.42568359 184.74783203 21.42236328 185.53076172 C21.4582803 189.35429163 21.8140013 192.73386068 22.76179504 196.44361877 C23.08613022 197.7130986 23.41046539 198.98257843 23.74462891 200.29052734 C13.74744428 200.36026632 3.75031825 200.41345944 -6.24706078 200.44596386 C-10.89005548 200.46157021 -15.53288283 200.48271579 -20.17578125 200.5168457 C-24.66267144 200.5496196 -29.14940141 200.56741813 -33.63640213 200.57515907 C-35.34188989 200.58067039 -37.04736963 200.59143208 -38.75278854 200.60771751 C-51.85404038 200.72776432 -61.73420541 199.182174 -73.13037109 192.47802734 C-74.69450623 191.5857016 -76.25961346 190.69507769 -77.82568359 189.80615234 C-78.95538574 189.16129883 -78.95538574 189.16129883 -80.10791016 188.50341797 C-83.04343959 186.84542454 -86.00630643 185.26869398 -89.00537109 183.72802734 C-89.88708984 183.27298828 -90.76880859 182.81794922 -91.67724609 182.34912109 C-100.78042191 178.61130193 -113.62056185 179.68301867 -122.25537109 179.29052734 C-122.25537109 142.33052734 -122.25537109 105.37052734 -122.25537109 67.29052734 C-114.33537109 66.96052734 -106.41537109 66.63052734 -98.25537109 66.29052734 C-85.73921724 62.53568119 -77.09875227 57.68300552 -67.25537109 49.29052734 C-66.20893553 48.41760446 -65.16203618 47.54523733 -64.11474609 46.67333984 C-52.56506594 36.98467414 -41.43539959 26.74021618 -31.00537109 15.85302734 C-22.33168776 7.07537863 -12.70193581 0.07689032 0 0 Z " fill="#FAD231" transform="translate(503.25537109375,255.70947265625)"/>
<path d="M0 0 C1.00804687 0.56847656 2.01609375 1.13695313 3.0546875 1.72265625 C22.34581411 13.28093749 35.91348003 32.27635873 44.375 52.8125 C44.684375 53.54452637 44.99375 54.27655273 45.3125 55.03076172 C50.97884819 69.54461987 52.65534078 84.56575033 52.46655273 100.02880859 C52.43711782 102.65915216 52.44610671 105.28752424 52.45898438 107.91796875 C52.45275693 109.62500962 52.44437381 111.33204431 52.43359375 113.0390625 C52.43652939 113.80795807 52.43946503 114.57685364 52.44248962 115.36904907 C52.34847373 120.84526008 51.49299685 126.06451058 49 131 C46 133 46 133 42.5 132.875 C39 132 39 132 37.29077148 130.4453125 C35.4674197 126.99104894 35.70421669 123.79854996 35.84765625 120 C35.87932481 118.38331519 35.91022017 116.76661508 35.94042969 115.14990234 C35.97154846 113.88687286 35.97154846 113.88687286 36.0032959 112.59832764 C36.33758531 97.92715781 36.12935329 84.19284715 32 70 C31.73445312 68.94941406 31.46890625 67.89882812 31.1953125 66.81640625 C26.84963029 51.56513106 18.43971438 37.84742148 7 27 C6.27296875 26.26652344 5.5459375 25.53304687 4.796875 24.77734375 C-9.2924448 11.23594194 -28.25383004 4.5770225 -47.54296875 4.63208008 C-68.78636185 5.06574455 -88.21805286 15.0206312 -103 30 C-114.57117373 42.76451761 -125.47006148 60.61112681 -128 78 C-126.45551867 77.76802257 -124.91443651 77.51338442 -123.375 77.25 C-122.08722656 77.04117188 -122.08722656 77.04117188 -120.7734375 76.828125 C-116.69247615 75.60958443 -113.32322031 73.95302505 -110.87255859 70.3359375 C-109.83135094 68.37889521 -108.90356037 66.39915471 -108 64.375 C-107.31244742 62.92977293 -106.62234311 61.48575704 -105.9296875 60.04296875 C-105.4342041 58.99761963 -105.4342041 58.99761963 -104.92871094 57.93115234 C-96.42104151 40.24038863 -83.360795 30.03552975 -65.3828125 23.1640625 C-49.97187887 17.86099296 -31.45958982 19.89580368 -17.015625 26.8828125 C-0.54512933 35.31744924 11.47409115 47.1584586 17.95703125 64.7265625 C20.71577996 73.38510715 21.30751947 80.7773379 21.25 89.875 C21.25773438 91.09058594 21.26546875 92.30617188 21.2734375 93.55859375 C21.25982354 99.8686656 20.86835945 105.69411686 19.46289062 111.84619141 C18.13272517 118.03538954 17.95889256 124.61412878 20.5 130.4375 C26.41457786 136.49994231 32.90064959 140.13772421 40.55859375 143.703125 C43 145 43 145 44 147 C44.30193396 150.39675703 44.14729439 152.63176401 42.875 155.8125 C41 158 41 158 38.375 158.85546875 C33.84217758 159.04958267 31.06335831 157.59753805 27.125 155.5 C26.06381958 154.95013428 26.06381958 154.95013428 24.98120117 154.38916016 C19.66893444 151.55146056 15.1428146 148.40635242 11 144 C10.0925 143.0925 9.185 142.185 8.25 141.25 C0.41101209 129.92701746 1.44475314 119.10533455 3.5 106.1875 C6.24059173 88.92736513 6.30690577 71.93648519 -4 57 C-12.38891587 46.29835043 -26.66258592 39.10452293 -40 37 C-54.43138769 35.69546778 -68.26235639 40.26233664 -79.5 49.3125 C-84.70004402 54.31423725 -87.79970885 60.48567688 -90.90234375 66.91796875 C-96.75663687 79.05201233 -102.4050349 88.64176221 -115.75 93.3125 C-121.10181389 94.45778817 -126.56005151 94.12363519 -132 94 C-132 98.62 -132 103.24 -132 108 C-117.19518534 108.44414444 -105.46772402 106.46738476 -93 98 C-90.93135253 95.93135253 -89.16500561 93.88052509 -87.46484375 91.50390625 C-86.73974609 90.75947266 -86.73974609 90.75947266 -86 90 C-84.68 90 -83.36 90 -82 90 C-81.71125 90.804375 -81.4225 91.60875 -81.125 92.4375 C-80.26737432 95.1326468 -80.26737432 95.1326468 -78 96 C-78 96.99 -78 97.98 -78 99 C-78.66 99 -79.32 99 -80 99 C-80.33 101.31 -80.66 103.62 -81 106 C-82.65 106.33 -84.3 106.66 -86 107 C-86.09667969 107.6084375 -86.19335938 108.216875 -86.29296875 108.84375 C-87.15526081 111.47350257 -88.00808614 112.0393865 -90.3125 113.5 C-92.47489067 114.88843306 -94.12266575 116.13102932 -95.890625 118.01953125 C-98.3124147 120.29332269 -100.30620599 121.12346806 -103.4375 122.1875 C-104.36433594 122.51105469 -105.29117188 122.83460938 -106.24609375 123.16796875 C-112.04904752 124.92120159 -117.28996303 125.12429399 -123.3125 125.0625 C-124.14845703 125.05798828 -124.98441406 125.05347656 -125.84570312 125.04882812 C-127.89716649 125.03710548 -129.94859273 125.01917203 -132 125 C-131.505 131.93 -131.505 131.93 -131 139 C-107.96860456 138.50416802 -88.51381367 133.74282325 -71.86328125 117.05078125 C-64.44227786 109.27952401 -59.58244403 100.72740515 -55.14355469 91.01708984 C-54.79196289 90.26766113 -54.44037109 89.51823242 -54.078125 88.74609375 C-53.77293945 88.07247803 -53.46775391 87.3988623 -53.15332031 86.70483398 C-51.68725202 84.53769705 -50.44482454 83.88557865 -48 83 C-44.31939225 83.12914413 -41.9283235 83.22140609 -39.0625 85.625 C-37.3786525 89.3888944 -37.30707974 93.02986981 -38.68676758 96.95263672 C-39.6716633 99.06198306 -40.74198193 101.09135985 -41.875 103.125 C-42.28065186 103.86709717 -42.68630371 104.60919434 -43.10424805 105.3737793 C-47.08829303 112.47119404 -51.64720657 118.87748545 -57 125 C-57.44682129 125.51401367 -57.89364258 126.02802734 -58.35400391 126.55761719 C-66.08452541 135.26706541 -74.86869158 141.34764572 -85 147 C-85.79921875 147.46277344 -86.5984375 147.92554688 -87.421875 148.40234375 C-99.59858294 154.65588562 -114.67236932 154.4503705 -128 154 C-127.58427734 155.33804688 -127.58427734 155.33804688 -127.16015625 156.703125 C-126.79792969 157.87359375 -126.43570313 159.0440625 -126.0625 160.25 C-125.70285156 161.41015625 -125.34320313 162.5703125 -124.97265625 163.765625 C-124.24933363 166.17089058 -123.57457589 168.55654044 -123 171 C-123.66 171 -124.32 171 -125 171 C-125.226875 172.0725 -125.45375 173.145 -125.6875 174.25 C-127.13026545 178.37218701 -128.41910075 179.64414523 -132 182 C-132.268125 181.401875 -132.53625 180.80375 -132.8125 180.1875 C-133.86283974 177.98901992 -133.86283974 177.98901992 -135.46899414 176.58862305 C-149.56666949 161.96040211 -148.36513564 130.27160385 -148.4375 111.5625 C-148.44385468 110.71918121 -148.45020935 109.87586243 -148.45675659 109.00698853 C-148.605989 77.15536542 -138.94020752 46.42289467 -118 22 C-117.52175781 21.38898438 -117.04351562 20.77796875 -116.55078125 20.1484375 C-88.72885167 -14.76848271 -37.43950256 -21.5355356 0 0 Z " fill="#074266" transform="translate(258,78)"/>
<path d="M0 0 C13.85198366 13.67755758 20.84739293 30.25888382 21.1875 49.6875 C20.98033074 69.28571223 14.01260475 87.23816011 0.53515625 101.6171875 C-3.13080525 105.06285239 -7.09508118 107.99825168 -11.203125 110.89453125 C-15.62715095 114.22490833 -19.15057597 117.87540791 -22.1875 122.5 C-22.67605469 123.2321875 -23.16460938 123.964375 -23.66796875 124.71875 C-28.32970697 132.70248935 -28.18050074 140.96316587 -28.31640625 149.9609375 C-28.3475779 151.67949448 -28.3475779 151.67949448 -28.37937927 153.43276978 C-28.44458218 157.08012086 -28.50362352 160.72754184 -28.5625 164.375 C-28.60571305 166.85287171 -28.64932822 169.33073644 -28.69335938 171.80859375 C-28.80023352 177.8723227 -28.90205349 183.93612063 -29 190 C-30.61172825 190.05133737 -32.22392513 190.08811674 -33.83618164 190.11865234 C-34.73389786 190.14067719 -35.63161407 190.16270203 -36.55653381 190.18539429 C-39 190 -39 190 -41.62109375 188.1015625 C-42.52021484 186.87566406 -42.52021484 186.87566406 -43.4375 185.625 C-45.61368589 182.76279308 -46.97023791 181.01984139 -50 179 C-50.37854004 177.07803345 -50.37854004 177.07803345 -50.38476562 174.70556641 C-50.39487671 173.8176944 -50.40498779 172.92982239 -50.41540527 172.01504517 C-50.41238403 171.05359589 -50.40936279 170.09214661 -50.40625 169.1015625 C-50.41708618 168.11505707 -50.42792236 167.12855164 -50.43908691 166.1121521 C-50.47345764 162.94970171 -50.48896205 159.78761292 -50.5 156.625 C-50.51454657 152.47100485 -50.54821174 148.31782056 -50.59375 144.1640625 C-50.59072876 143.20666168 -50.58770752 142.24926086 -50.58459473 141.2628479 C-50.59470581 140.36867157 -50.60481689 139.47449524 -50.61523438 138.55322266 C-50.61728882 137.76871735 -50.61934326 136.98421204 -50.62145996 136.17593384 C-51.09923037 133.42960135 -52.12714425 132.03598622 -54 130 C-57.04548635 129.23722626 -59.92284869 129.43242417 -63 130 C-65.50160818 131.87620613 -66.61945652 133.23891303 -68 136 C-68.15676775 138.69655446 -68.25836315 141.37129977 -68.31640625 144.0703125 C-68.3475779 145.26465408 -68.3475779 145.26465408 -68.37937927 146.48312378 C-68.44484149 149.03032685 -68.50374415 151.57763425 -68.5625 154.125 C-68.6056884 155.85027127 -68.64930279 157.57553193 -68.69335938 159.30078125 C-68.80132245 163.53374872 -68.90042007 167.76679371 -69 172 C-75.93 172 -82.86 172 -90 172 C-89.99097656 169.34710938 -89.98195313 166.69421875 -89.97265625 163.9609375 C-89.98774576 161.3426149 -90.01469589 158.72465779 -90.04272461 156.10644531 C-90.05572639 154.31059382 -90.05672715 152.51460813 -90.04467773 150.71875 C-89.96663895 137.4001302 -91.08613597 126.46638875 -100.54174805 116.25512695 C-104.75663141 112.28764732 -109.41289418 108.93474493 -114.06640625 105.5078125 C-128.57513951 94.19393161 -136.67213353 77.02743105 -139 59 C-140.41249706 40.13804657 -137.29489019 22.35579369 -125.734375 6.98828125 C-123.89574191 4.88178974 -122.0802344 2.86754211 -120 1 C-119.67 1 -119.34 1 -119 1 C-118.98541748 2.22517334 -118.97083496 3.45034668 -118.95581055 4.71264648 C-118.89749702 9.29203339 -118.82026781 13.87094548 -118.73754883 18.44995117 C-118.7044542 20.42545826 -118.67637496 22.40105639 -118.65356445 24.37670898 C-118.61973244 27.22939572 -118.5674043 30.08125965 -118.51171875 32.93359375 C-118.50532883 33.80584091 -118.4989389 34.67808807 -118.49235535 35.57676697 C-118.28649652 44.31474371 -116.1535302 52.52693639 -110 59 C-107.5073881 61.00867026 -104.86603631 62.66489444 -102.125 64.3125 C-100.6022055 65.26196459 -99.08008291 66.21250755 -97.55859375 67.1640625 C-96.79530762 67.63618164 -96.03202148 68.10830078 -95.24560547 68.59472656 C-91.84555446 70.72243842 -88.51730752 72.95213815 -85.1875 75.1875 C-84.26384644 75.79694458 -84.26384644 75.79694458 -83.3215332 76.41870117 C-80.4162738 78.3406778 -77.60229087 80.30048048 -74.8203125 82.40234375 C-68.84567236 86.81737004 -64.57362922 88.88742478 -57.08203125 88.76953125 C-49.18032504 86.79660841 -42.2240224 81.30939698 -35.5 76.875 C-30.40192762 73.51726611 -25.31037355 70.16625152 -20.09765625 66.98828125 C-18.94910156 66.27792725 -18.94910156 66.27792725 -17.77734375 65.55322266 C-16.3497354 64.67292712 -14.91399242 63.80562462 -13.46875 62.95458984 C-8.4579363 59.83279313 -5.62511473 56.27465787 -3 51 C-2.63414795 50.31035156 -2.2682959 49.62070313 -1.89135742 48.91015625 C-0.52936905 44.46345632 -0.6404497 40.07584064 -0.5859375 35.44921875 C-0.56657135 34.43527542 -0.5472052 33.42133209 -0.5272522 32.37666321 C-0.46760574 29.14702697 -0.42113049 25.9173548 -0.375 22.6875 C-0.33680651 20.49412532 -0.29775398 18.30076542 -0.2578125 16.10742188 C-0.16191652 10.7384127 -0.07682545 5.36931409 0 0 Z " fill="#1AA7BE" transform="translate(635,63)"/>
<path d="M0 0 C13.53 0 27.06 0 41 0 C41 45.87 41 91.74 41 139 C27.47 139 13.94 139 0 139 C0 93.13 0 47.26 0 0 Z " fill="#54CB9C" transform="translate(319,309)"/>
<path d="M0 0 C1.58699729 1.36791686 3.14873746 2.76554122 4.6875 4.1875 C5.61304688 5.033125 6.53859375 5.87875 7.4921875 6.75 C21.57796775 20.18684186 30.5290515 38.08286211 34.27587891 57.12963867 C34.56376302 58.56888851 34.88677164 60.00135517 35.23583984 61.42700195 C37.49080256 71.56452145 36.75799645 81.93999179 36.49560547 92.25463867 C36.43529807 94.79348521 36.39973274 97.33176148 36.3671875 99.87109375 C36.32680862 101.03517006 36.32680862 101.03517006 36.28561401 102.22276306 C36.2527758 105.74582384 36.40053703 107.78506916 38.47314453 110.69165039 C41.57948529 112.79005721 44.03010742 112.46883789 47.6875 112.1875 C48.84587573 115.66262718 48.46015943 117.32420286 47.75 120.875 C47.45802734 122.36580078 47.45802734 122.36580078 47.16015625 123.88671875 C47.00417969 124.64597656 46.84820312 125.40523437 46.6875 126.1875 C44.875 126.875 44.875 126.875 42.6875 127.1875 C41.65312603 126.22309838 40.6610007 125.21331499 39.6875 124.1875 C37.45858825 123.08144455 35.20513289 122.02432773 32.9375 121 C26.20356163 117.81871404 21.0710611 113.9546222 17.6875 107.1875 C17.56268253 105.19042042 17.511798 103.18844154 17.5 101.1875 C17.48582031 100.115 17.47164062 99.0425 17.45703125 97.9375 C17.64046198 94.95286436 18.02153748 92.49346038 18.67578125 89.609375 C21.81279618 74.78035936 21.77660251 56.22468336 15.6875 42.1875 C15.26339844 41.15109375 14.83929688 40.1146875 14.40234375 39.046875 C6.3338406 21.15682345 -9.50455874 11.5531089 -26.875 4.0859375 C-40.13682368 -0.46218793 -57.62692181 0.62624782 -70.3125 6.1875 C-71.48167969 6.68507813 -72.65085938 7.18265625 -73.85546875 7.6953125 C-90.94094589 15.37017012 -99.79690941 27.75704019 -106.94165039 44.49951172 C-109.71672547 50.75634614 -112.62407557 54.20142531 -118.75 57.5 C-121.99710341 58.37117409 -124.96710017 58.31869215 -128.3125 58.1875 C-127.80371703 51.82771289 -126.22463933 46.70859008 -123.6875 40.875 C-123.327771 40.03904297 -122.96804199 39.20308594 -122.59741211 38.34179688 C-117.74921949 27.33705061 -111.18876449 18.24378245 -103.3125 9.1875 C-102.78398437 8.56230469 -102.25546875 7.93710938 -101.7109375 7.29296875 C-92.00722735 -3.3313498 -78.83575618 -9.64477234 -65.3125 -13.8125 C-64.466875 -14.07804687 -63.62125 -14.34359375 -62.75 -14.6171875 C-41.0681136 -20.11294343 -17.4125873 -13.41761078 0 0 Z " fill="#F4D235" transform="translate(258.3125,97.8125)"/>
<path d="M0 0 C13.82602495 -0.97626512 27.89823583 6.99040637 38.046875 15.54296875 C47.7577583 24.62881875 52.21789557 36.01255345 52.95703125 49.13671875 C53.1534839 56.44817379 52.45954541 63.27634014 51.296875 70.48046875 C49.34582714 82.72103938 47.93366706 93.71338853 55.33984375 104.55078125 C62.24177007 112.85836305 71.4538158 119.09421278 81.796875 122.29296875 C85.58658495 122.0434043 85.58658495 122.0434043 88.796875 121.29296875 C87.16690604 125.43119093 85.43032145 129.52065653 83.671875 133.60546875 C83.39472656 134.25064453 83.11757813 134.89582031 82.83203125 135.56054688 C82.15419946 137.1382588 81.47561426 138.71564701 80.796875 140.29296875 C80.136875 140.29296875 79.476875 140.29296875 78.796875 140.29296875 C78.06984375 139.53757813 77.3428125 138.7821875 76.59375 138.00390625 C73.55824769 135.06167356 70.87863562 133.66354859 67.046875 131.91796875 C51.66779969 124.57868333 38.23877918 111.85912308 31.796875 95.85546875 C29.23443204 86.66935249 32.04905401 78.17786889 34.859375 69.41796875 C38.34635165 58.32013395 40.10699823 48.85850583 34.921875 37.91796875 C29.67113857 28.0669219 22.01536072 22.99607897 11.5480957 19.67944336 C1.9511943 16.99289106 -8.0609725 17.10476897 -17.203125 21.29296875 C-24.10665937 25.45662553 -28.57516491 30.58237364 -32.078125 37.85546875 C-32.59503906 38.90476563 -33.11195313 39.9540625 -33.64453125 41.03515625 C-34.65774911 43.15301012 -35.64625993 45.28292478 -36.60546875 47.42578125 C-42.17253831 59.4851951 -49.84877218 66.40097669 -62.203125 71.29296875 C-69.3435582 73.72001255 -77.97715458 74.70162556 -85.203125 72.29296875 C-85.203125 67.67296875 -85.203125 63.05296875 -85.203125 58.29296875 C-84.16414063 58.195 -83.12515625 58.09703125 -82.0546875 57.99609375 C-71.67376745 56.92547179 -61.37173586 55.85581832 -53.921875 47.73828125 C-50.30593612 42.59378639 -47.76540427 36.81671718 -45.0859375 31.14599609 C-38.82656158 18.00753833 -30.35175913 8.72429693 -16.6171875 3.0703125 C-11.17500929 1.31789589 -5.63939558 0.74991962 0 0 Z " fill="#F3D33B" transform="translate(211.203125,113.70703125)"/>
<path d="M0 0 C5.17428825 3.03708224 7.42476837 7.33469326 9 13 C10.42926012 27.76902122 -0.27041892 46.50736562 -9.33496094 57.57299805 C-25.25276774 76.19844701 -47.26090481 92.03371618 -72.0625 95.8125 C-78.04265302 96.09726919 -84.01458146 96.07565838 -90 96 C-90.83764268 94.04350603 -91.66999059 92.08474444 -92.5 90.125 C-92.9640625 89.03445312 -93.428125 87.94390625 -93.90625 86.8203125 C-95 84 -95 84 -95 82 C-93.23849609 81.97873047 -93.23849609 81.97873047 -91.44140625 81.95703125 C-65.7353549 81.32769289 -44.65067122 71.60967351 -26.62890625 52.97265625 C-20.19820953 45.70109577 -15.14472737 37.57802328 -10.4375 29.125 C-10.09050049 28.51881836 -9.74350098 27.91263672 -9.38598633 27.28808594 C-7.11526712 23.04351161 -6.4991106 19.77860001 -7 15 C-8.73301478 11.65091369 -8.73301478 11.65091369 -12.375 11.25 C-16.38429933 10.79488573 -16.38429933 10.79488573 -20 12 C-20.67206476 13.99819254 -21.33747554 15.99862403 -22 18 C-32.61153179 40.17444229 -47.41042434 55.43532165 -70.828125 64.0390625 C-80.0460023 66.79412639 -89.48292386 66.26878772 -99 66 C-99.33 61.38 -99.66 56.76 -100 52 C-98.82824219 51.96261719 -97.65648437 51.92523438 -96.44921875 51.88671875 C-78.26455322 51.18313384 -62.49806694 47.0869583 -49 34 C-43.27079993 27.62613495 -39.64175343 20.64531673 -36.52075195 12.74609375 C-33.93747774 6.31087961 -30.59104972 -0.10060873 -24.140625 -3.33984375 C-15.74083742 -5.93028919 -7.5624834 -3.99711369 0 0 Z " fill="#F3D43A" transform="translate(226,151)"/>
<path d="M0 0 C6.77097311 4.90228161 12.6614802 12.00307133 14.25 20.375 C15.20291461 30.69600468 14.3010955 40.60401693 8.125 49.1875 C2.07649262 56.32294845 -5.31742467 60.86502504 -14.703125 61.74609375 C-23.48684477 61.99485243 -30.33330025 61.61286383 -37.75 56.375 C-38.33007812 55.97925781 -38.91015625 55.58351563 -39.5078125 55.17578125 C-46.03664693 50.23814516 -50.26165149 43.38051093 -51.75 35.375 C-52.9912856 23.58278677 -51.51172356 14.97318533 -44.14453125 5.2578125 C-32.52139333 -7.60770359 -14.41692991 -8.82669178 0 0 Z " fill="#054367" transform="translate(224.75,344.625)"/>
<path d="M0 0 C1.35646889 -0.00006042 1.35646889 -0.00006042 2.74034119 -0.00012207 C4.64052328 0.00520927 6.54070661 0.02268904 8.44067383 0.05175781 C11.33548919 0.09368693 14.22797819 0.0928124 17.12304688 0.0859375 C18.97788061 0.09642951 20.83270246 0.10936768 22.6875 0.125 C23.5449733 0.12520142 24.40244659 0.12540283 25.28590393 0.12561035 C30.6773897 0.23093429 34.50089237 1.03896617 39.27734375 3.59375 C43.50421055 8.15431681 44.64861315 11.1257935 44.55078125 17.2109375 C44.10706271 21.07762762 42.75583264 23.64003038 40.27734375 26.59375 C34.93163278 30.31209562 31.11279697 31.17897463 24.68334961 31.11132812 C23.85315811 31.1183374 23.02296661 31.12534668 22.1676178 31.13256836 C19.44212724 31.15007558 16.71768735 31.13855292 13.9921875 31.125 C12.08842267 31.12769676 10.18465918 31.13158071 8.28089905 31.13659668 C4.29902987 31.14248165 0.31752058 31.13396014 -3.66430664 31.11523438 C-8.76100543 31.0924299 -13.85686229 31.10558374 -18.95353031 31.12952423 C-22.8818544 31.14399604 -26.8099797 31.13937014 -30.73830986 31.12901306 C-32.61733539 31.12635041 -34.49637914 31.12959927 -36.37538338 31.13893127 C-39.00342588 31.14912147 -41.63011465 31.13356268 -44.25805664 31.11132812 C-45.02965118 31.11942505 -45.80124573 31.12752197 -46.59622192 31.13586426 C-51.78783908 31.05473109 -54.72152573 29.86675501 -58.72265625 26.59375 C-62.59622235 21.98734707 -63.72265625 18.49369093 -63.72265625 12.59375 C-61.71030056 8.56903862 -59.97124647 6.13799346 -55.72265625 4.59375 C-53.35546875 4.80078125 -53.35546875 4.80078125 -50.84765625 5.40625 C-49.96078125 5.60605469 -49.07390625 5.80585938 -48.16015625 6.01171875 C-47.35578125 6.20378906 -46.55140625 6.39585937 -45.72265625 6.59375 C-36.88135389 8.51577225 -26.31583702 8.71734485 -17.72265625 5.59375 C-16.53452363 4.75958324 -15.35122473 3.91851529 -14.17114258 3.07299805 C-9.43460484 0.08722023 -5.49504151 -0.10531621 0 0 Z " fill="#FBD22F" transform="translate(613.72265625,325.40625)"/>
<path d="M0 0 C1.26188896 -0.01029488 1.26188896 -0.01029488 2.54927063 -0.02079773 C5.32273358 -0.03905968 8.09563061 -0.03522954 10.86914062 -0.02954102 C12.80057967 -0.03410273 14.73201709 -0.03940827 16.66345215 -0.04542542 C20.70848186 -0.05435504 24.75331412 -0.05193461 28.79833984 -0.04199219 C33.98035672 -0.03049581 39.16169285 -0.05072504 44.3436203 -0.07990932 C48.33107832 -0.09825906 52.31837278 -0.09798143 56.30586243 -0.0922718 C58.21642513 -0.09211848 60.12699884 -0.09817228 62.03752136 -0.11056328 C64.70904221 -0.12545039 67.37929979 -0.11481383 70.05078125 -0.09765625 C70.8384639 -0.10732422 71.62614655 -0.11699219 72.43769836 -0.12695312 C77.44046683 -0.05971337 80.02233821 0.81862707 83.52539062 4.40405273 C86.58414362 8.78826536 86.90645093 12.1011291 86.09570312 17.22436523 C84.90191212 21.78693634 82.86215989 24.57473782 78.88220215 27.04385376 C74.991734 28.62029341 71.63072208 28.82673588 67.50390625 28.79223633 C66.72262863 28.79749329 65.94135101 28.80275024 65.13639832 28.8081665 C62.56793908 28.82131117 60.00010557 28.81264829 57.43164062 28.80249023 C55.6385486 28.80451256 53.84545738 28.80742533 52.05236816 28.81118774 C48.29996893 28.8156036 44.54778438 28.80920388 40.79541016 28.79516602 C35.99362345 28.77807455 31.19233986 28.7879197 26.39057159 28.80588341 C22.6895979 28.81674123 18.98874283 28.81326574 15.2877655 28.80550003 C13.51759277 28.80350355 11.74740916 28.80593786 9.97724915 28.81293869 C7.50016895 28.82058617 5.02389537 28.80890338 2.546875 28.79223633 C1.8204631 28.79830902 1.09405121 28.80438171 0.34562683 28.81063843 C-4.32533478 28.75262564 -7.50359981 27.85588018 -11.47460938 25.40405273 C-15.8758336 20.64597249 -16.78145823 16.92004108 -16.68945312 10.62280273 C-16.38842583 7.51401173 -15.4945288 5.77223413 -13.47460938 3.40405273 C-9.17908693 0.08995864 -5.23065642 -0.02989348 0 0 Z " fill="#FAD12E" transform="translate(563.474609375,376.595947265625)"/>
<path d="M0 0 C1.09832657 -0.01029488 1.09832657 -0.01029488 2.21884155 -0.02079773 C4.63583858 -0.03907669 7.05218705 -0.03522627 9.46923828 -0.02954102 C11.15308849 -0.03410293 12.83693683 -0.03940853 14.52078247 -0.04542542 C18.04973921 -0.05435912 21.57846969 -0.05193125 25.10742188 -0.04199219 C29.62241087 -0.03051323 34.13661652 -0.05069572 38.65150261 -0.07990932 C42.12945492 -0.09828798 45.60722019 -0.09797539 49.08520889 -0.0922718 C50.74933087 -0.09211873 52.41346565 -0.0981514 54.07754135 -0.11056328 C56.40895904 -0.12550029 58.73893873 -0.11477735 61.0703125 -0.09765625 C62.09451294 -0.1121582 62.09451294 -0.1121582 63.1394043 -0.12695312 C68.07173404 -0.05139314 70.84651435 1.35651529 74.66455078 4.40405273 C77.51717748 7.82720478 78.20229858 10.81060562 78.01611328 15.27905273 C77.23083188 20.02564256 75.42941531 24.09157177 71.53343201 26.98890686 C67.95464231 28.75423246 65.38471659 28.79135285 61.39916992 28.80810547 C60.68631332 28.81496872 59.97345673 28.82183197 59.23899841 28.8289032 C56.89236293 28.84714187 54.54639791 28.84333807 52.19970703 28.83764648 C50.5621265 28.84220981 48.92454789 28.84751584 47.28697205 28.85353088 C43.85814627 28.86245627 40.42955347 28.86004558 37.00073242 28.85009766 C32.6146792 28.83861025 28.22943136 28.85881827 23.84348392 28.88801479 C20.46246768 28.90639388 17.08164382 28.90608095 13.70059013 28.90037727 C12.0839163 28.90022426 10.46722926 28.90625229 8.8506031 28.91866875 C6.58633581 28.93360959 4.32354834 28.92288095 2.05932617 28.90576172 C0.77312881 28.90559555 -0.51306854 28.90542938 -1.83824158 28.90525818 C-6.76862907 28.19865528 -9.88925552 26.04972142 -13.14794922 22.34155273 C-15.64015914 18.2753155 -15.97811782 14.05239548 -15.33544922 9.40405273 C-11.54414669 2.22765867 -7.97088636 -0.05224167 0 0 Z " fill="#F8D335" transform="translate(559.33544921875,425.595947265625)"/>
<path d="M0 0 C2.21118512 2.82308541 4.124918 5.76983917 6.00488281 8.8215332 C15.22185517 23.66150156 26.60412998 33.14498714 41.875 41.4375 C42.48102051 41.76766113 43.08704102 42.09782227 43.71142578 42.43798828 C47.747909 44.5530745 51.61230993 45.88343948 56 47 C54.53809273 50.19292186 52.73158625 52.80566134 50.5625 55.5625 C49.66724609 56.70912109 49.66724609 56.70912109 48.75390625 57.87890625 C47.23868526 59.711345 45.79190162 61.43770137 44 63 C43.34 63 42.68 63 42 63 C41.39091797 61.90365234 41.39091797 61.90365234 40.76953125 60.78515625 C38.61893175 57.40021708 35.96671989 55.60281902 32.6875 53.4375 C26.67829213 49.32660335 21.14531724 44.86211718 15.70776367 40.02319336 C9.22583423 34.29740906 4.17218894 31.55844898 -4.46142578 31.73364258 C-11.84991248 32.50887233 -18.5065291 37.40100282 -24.625 41.3125 C-37.91757657 49.56757109 -50.54106795 55.23665668 -66 58 C-67.38251953 58.29197266 -67.38251953 58.29197266 -68.79296875 58.58984375 C-71.30098998 58.90496518 -72.6572122 58.96356595 -75 58 C-78.19668787 54.99770532 -80.74028526 51.75592914 -83 48 C-83 47.34 -83 46.68 -83 46 C-82.42668945 45.89977539 -81.85337891 45.79955078 -81.26269531 45.69628906 C-48.55167322 39.90986277 -21.2826763 26.15371137 0 0 Z " fill="#EFD130" transform="translate(229,217)"/>
<path d="M0 0 C5.71082747 -0.07443429 11.4213694 -0.12873634 17.13256836 -0.16479492 C19.07337364 -0.17983491 21.0141452 -0.20027214 22.95483398 -0.22631836 C25.75252632 -0.26291295 28.54976733 -0.27977448 31.34765625 -0.29296875 C32.2083522 -0.30845261 33.06904816 -0.32393646 33.95582581 -0.33988953 C39.40986107 -0.34139606 43.17370236 0.40402222 48 3 C52.36112289 7.59065568 53.36159135 11.42587544 53.28125 17.58203125 C52.82460692 21.50789325 51.4512257 24.89558235 49 28 C44.71583883 31.30186711 40.84656475 31.39888163 35.63671875 31.29296875 C34.84473587 31.28872391 34.05275299 31.28447906 33.23677063 31.28010559 C30.71999373 31.26338163 28.20403276 31.22574225 25.6875 31.1875 C23.97592307 31.17244499 22.26433351 31.15875801 20.55273438 31.14648438 C16.36817767 31.11349885 12.18422693 31.06176098 8 31 C6.8489262 26.9598072 5.70507239 22.91760447 4.5625 18.875 C4.23701172 17.73289062 3.91152344 16.59078125 3.57617188 15.4140625 C3.10727539 13.75117188 3.10727539 13.75117188 2.62890625 12.0546875 C2.34088135 11.03874512 2.05285645 10.02280273 1.75610352 8.97607422 C0.99916353 5.99670761 0.46142995 3.03791222 0 0 Z " fill="#F8D334" transform="translate(605,274)"/>
<path d="M0 0 C4.24791249 2.65270484 8.001212 5.96939274 11.8515625 9.15625 C14.21572486 11.04511793 16.59571511 12.91348347 18.9765625 14.78125 C19.8742334 15.49112061 19.8742334 15.49112061 20.79003906 16.21533203 C24.01743541 18.75929022 27.2909706 21.18159173 30.6640625 23.53125 C33.00888832 25.28735346 33.77662217 25.99453666 35.0390625 28.71875 C34.79501944 31.89130984 33.74681512 33.6292465 31.8515625 36.15625 C28.77721564 37.69342343 26.2480742 37.39554157 22.8515625 37.15625 C13.10739571 32.56831371 4.567606 24.21015386 -3.64306641 17.33618164 C-5.6898742 15.73186408 -7.09751188 15.16513055 -9.6796875 14.71484375 C-14.91856055 15.38150214 -18.38081552 18.24069822 -22.6484375 21.21875 C-38.73923601 32.06007861 -38.73923601 32.06007861 -47.1484375 35.15625 C-48.1384375 34.82625 -49.1284375 34.49625 -50.1484375 34.15625 C-49.43816406 33.81851563 -48.72789062 33.48078125 -47.99609375 33.1328125 C-46.61744141 32.46378906 -46.61744141 32.46378906 -45.2109375 31.78125 C-44.29441406 31.34039062 -43.37789062 30.89953125 -42.43359375 30.4453125 C-40.01939948 29.36425838 -40.01939948 29.36425838 -39.1484375 27.15625 C-37.0859375 26.03125 -37.0859375 26.03125 -35.1484375 25.15625 C-35.6434375 23.67125 -35.6434375 23.67125 -36.1484375 22.15625 C-37.7984375 22.15625 -39.4484375 22.15625 -41.1484375 22.15625 C-41.1484375 21.49625 -41.1484375 20.83625 -41.1484375 20.15625 C-42.1384375 20.15625 -43.1284375 20.15625 -44.1484375 20.15625 C-44.1484375 19.49625 -44.1484375 18.83625 -44.1484375 18.15625 C-45.0146875 18.836875 -45.0146875 18.836875 -45.8984375 19.53125 C-47.9284708 20.99738516 -49.88383593 22.10482784 -52.1484375 23.15625 C-52.1484375 23.81625 -52.1484375 24.47625 -52.1484375 25.15625 C-52.8084375 25.15625 -53.4684375 25.15625 -54.1484375 25.15625 C-54.4784375 24.16625 -54.8084375 23.17625 -55.1484375 22.15625 C-56.08042969 22.445 -57.01242188 22.73375 -57.97265625 23.03125 C-66.53514807 25.56510621 -74.13854821 26.70322473 -83.1484375 26.15625 C-83.1484375 25.16625 -83.1484375 24.17625 -83.1484375 23.15625 C-82.8184375 23.48625 -82.4884375 23.81625 -82.1484375 24.15625 C-61.80778075 25.97238007 -41.92811762 14.91042875 -25.75390625 3.78686523 C-17.92628408 -1.56259233 -9.05312616 -4.46455537 0 0 Z " fill="#094265" transform="translate(236.1484375,249.84375)"/>
<path d="M0 0 C1.051875 -0.00386719 1.051875 -0.00386719 2.125 -0.0078125 C4 0.125 4 0.125 6 1.125 C7.66565749 1.27722973 9.33656496 1.37417215 11.0078125 1.44140625 C11.99394531 1.48330078 12.98007812 1.52519531 13.99609375 1.56835938 C15.54490234 1.62733398 15.54490234 1.62733398 17.125 1.6875 C18.68541016 1.75227539 18.68541016 1.75227539 20.27734375 1.81835938 C22.85142528 1.9246288 25.42560508 2.02666583 28 2.125 C28.37836668 11.31790888 28.20119387 17.90823961 23.3125 25.875 C16.55437694 32.45047109 8.59080126 33.42930351 -0.484375 33.3359375 C-8.33081325 32.86515121 -13.64392393 29.80650854 -19 24.125 C-24.40888518 17.60659992 -23.37216318 10.15752206 -23 2.125 C-21.19402344 2.03412109 -21.19402344 2.03412109 -19.3515625 1.94140625 C-17.77602923 1.85700268 -16.20050904 1.77235459 -14.625 1.6875 C-13.8309375 1.64818359 -13.036875 1.60886719 -12.21875 1.56835938 C-7.9202832 1.33157942 -4.22120502 -0.01551914 0 0 Z " fill="#1BA5BE" transform="translate(578,474.875)"/>
<path d="M0 0 C2.26211973 1.40721474 4.11347338 2.73818166 6.125 4.4375 C7.2623861 5.35495411 8.40042256 6.27160248 9.5390625 7.1875 C10.11172852 7.65542969 10.68439453 8.12335938 11.27441406 8.60546875 C13.9681903 10.78244242 16.72996038 12.85826038 19.5 14.9375 C20.4384375 15.64777344 21.376875 16.35804688 22.34375 17.08984375 C26.50719646 20.08385157 29.87291737 22.26755962 35 23 C33.65173475 26.09437927 32.25203513 27.90526435 29.62890625 30.015625 C28.97212891 30.54414063 28.31535156 31.07265625 27.63867188 31.6171875 C26.95353516 32.15601563 26.26839844 32.69484375 25.5625 33.25 C24.88123047 33.80429687 24.19996094 34.35859375 23.49804688 34.9296875 C22.51094727 35.71472656 22.51094727 35.71472656 21.50390625 36.515625 C20.90392822 36.99290039 20.3039502 37.47017578 19.68579102 37.96191406 C18 39 18 39 15 39 C14.98324219 38.3709375 14.96648437 37.741875 14.94921875 37.09375 C14.50298183 32.67134231 13.83368805 29.88687159 10.734375 26.58984375 C6.09346794 23.01841946 1.38875199 19.73471332 -4.6171875 19.5625 C-12.16626239 20.94855965 -19.06999236 25.82715621 -25.37890625 30.01953125 C-29.64440547 32.5993874 -34.19740972 32.60615217 -39 32 C-52.59475582 28.1769362 -52.59475582 28.1769362 -56 24 C-55.030625 23.8040625 -54.06125 23.608125 -53.0625 23.40625 C-37.49796158 20.03203698 -24.96244055 13.17252224 -12.11376953 3.86132812 C-5.07293638 -1.10190831 -5.07293638 -1.10190831 0 0 Z " fill="#F4D235" transform="translate(229,264)"/>
<path d="M0 0 C2.01105269 0.00850596 4.01925733 -0.02025681 6.0300293 -0.05200195 C7.94138672 -0.05103516 7.94138672 -0.05103516 9.89135742 -0.05004883 C11.05465576 -0.05190186 12.2179541 -0.05375488 13.41650391 -0.05566406 C17.21191874 0.54573755 18.8606869 1.78781283 21.58276367 4.44604492 C23.02707222 7.33466202 22.95964873 9.24252193 22.58276367 12.44604492 C20.53705894 15.31588838 18.96316394 17.19409881 15.39038086 17.84619141 C12.83304332 17.93810686 10.32609992 17.8824296 7.77026367 17.75854492 C6.88661133 17.73598633 6.00295898 17.71342773 5.0925293 17.69018555 C2.92187457 17.6315192 0.75209677 17.54184472 -1.41723633 17.44604492 C-1.39105225 18.09154297 -1.36486816 18.73704102 -1.33789062 19.40209961 C-1.23381194 22.33316609 -1.16887822 25.26384401 -1.10473633 28.19604492 C-1.0628418 29.21182617 -1.02094727 30.22760742 -0.9777832 31.27416992 C-0.85413274 38.79211817 -0.85413274 38.79211817 -3.71801758 42.11791992 C-7.27049742 43.86588396 -9.50223498 44.00533083 -13.41723633 43.44604492 C-16.80663188 41.30925207 -18.14306189 40.26856822 -19.41723633 36.44604492 C-19.68019121 31.82521056 -19.64870779 27.19854709 -19.66723633 22.57104492 C-19.68786133 21.29100586 -19.70848633 20.0109668 -19.72973633 18.69213867 C-19.7374707 16.84168945 -19.7374707 16.84168945 -19.74536133 14.95385742 C-19.75470703 13.82608887 -19.76405273 12.69832031 -19.77368164 11.53637695 C-19.27132503 7.18101399 -17.69733459 4.73176922 -14.63964844 1.66064453 C-10.20124911 -0.76504334 -4.94260555 -0.0319578 0 0 Z " fill="#044263" transform="translate(90.417236328125,76.553955078125)"/>
<path d="M0 0 C1.22847656 -0.03738281 2.45695312 -0.07476562 3.72265625 -0.11328125 C13.87585369 -0.21228318 13.87585369 -0.21228318 17.546875 2.7109375 C21.94561703 8.02998372 21.00592536 14.11155277 21.04516602 20.71679688 C21.05669239 22.0687913 21.07715523 23.42073999 21.10668945 24.77246094 C21.14945917 26.7307882 21.16294668 28.6896853 21.17578125 30.6484375 C21.19036377 31.81810059 21.20494629 32.98776367 21.2199707 34.19287109 C20.65520049 38.01687887 19.42713315 39.64211271 16.75 42.375 C13.89675563 43.80162219 11.91545451 43.68533868 8.75 43.375 C6.05009338 41.57506226 4.2081135 40.291227 2.75 37.375 C2.66657841 35.92651418 2.64267139 34.47429131 2.65234375 33.0234375 C2.65556641 32.17265625 2.65878906 31.321875 2.66210938 30.4453125 C2.67048828 29.55585937 2.67886719 28.66640625 2.6875 27.75 C2.69201172 26.8528125 2.69652344 25.955625 2.70117188 25.03125 C2.71297409 22.81243352 2.72943845 20.59374982 2.75 18.375 C1.65300781 18.40980469 0.55601562 18.44460937 -0.57421875 18.48046875 C-2.02863045 18.50861865 -3.4830588 18.53591752 -4.9375 18.5625 C-5.65873047 18.58763672 -6.37996094 18.61277344 -7.12304688 18.63867188 C-11.71146874 18.70152697 -14.61934474 18.24203752 -18.25 15.375 C-19.84616743 12.18266515 -19.76466114 8.84038503 -19.25 5.375 C-14.1844703 -1.21018861 -7.67194539 0.08745223 0 0 Z " fill="#064466" transform="translate(324.25,76.625)"/>
<path d="M0 0 C0.7528125 -0.0103125 1.505625 -0.020625 2.28125 -0.03125 C5.58810026 0.76053105 6.60160267 1.64385266 8.5 4.5 C8.98656058 7.9302521 8.87583167 11.2944687 8.75 14.75 C8.73195313 15.68585938 8.71390625 16.62171875 8.6953125 17.5859375 C8.64825673 19.89167015 8.58253713 22.19530945 8.5 24.5 C9.75296875 24.47679687 11.0059375 24.45359375 12.296875 24.4296875 C13.9479107 24.41092573 15.59895285 24.39272597 17.25 24.375 C18.075 24.35824219 18.9 24.34148437 19.75 24.32421875 C20.54921875 24.31777344 21.3484375 24.31132812 22.171875 24.3046875 C22.9050293 24.29421387 23.63818359 24.28374023 24.39355469 24.27294922 C26.83440369 24.5360449 28.4092093 25.23095443 30.5 26.5 C32.79968563 29.71955988 33.05348638 32.62559532 32.5 36.5 C29.90605994 39.78227611 28.4198855 41.32544341 24.2578125 42.11523438 C22.45957031 42.10459961 22.45957031 42.10459961 20.625 42.09375 C19.31015625 42.09117187 17.9953125 42.08859375 16.640625 42.0859375 C15.6206543 42.06418457 15.6206543 42.06418457 14.58007812 42.04199219 C12.50554443 42.00011193 10.4342606 42.00092899 8.359375 42.0078125 C-2.95979244 41.89684027 -2.95979244 41.89684027 -7.5 38.5 C-9.74674944 34.00650112 -8.76856602 27.8945142 -8.79516602 22.89697266 C-8.81238302 20.64033309 -8.85627122 18.38515763 -8.90039062 16.12890625 C-8.9105176 14.6927191 -8.91903369 13.2565195 -8.92578125 11.8203125 C-8.94036377 10.51336426 -8.95494629 9.20641602 -8.9699707 7.85986328 C-8.5 4.5 -8.5 4.5 -6.61206055 2.07568359 C-4.18729026 0.26670574 -2.99558503 -0.04103541 0 0 Z " fill="#034061" transform="translate(80.5,268.5)"/>
<path d="M0 0 C4.08327212 2.22218891 6.52646147 4.57938442 8 9 C8.39352617 13.88704592 8.61937593 18.71374848 6 23 C2.0386183 27.2512389 -1.00505588 28.80648799 -6.828125 29.12890625 C-11.6936235 28.84012666 -14.35459772 26.60237546 -17.8125 23.375 C-20.70629563 19.61025617 -21.27726481 15.67149193 -21 11 C-19.64873623 6.86672258 -17.49523012 3.60837037 -14 0.92578125 C-9.52237095 -1.14687126 -4.75705376 -0.91579645 0 0 Z " fill="#17A7BD" transform="translate(212,359)"/>
<path d="M0 0 C2.8100346 1.79363911 4.50940468 3.01880935 6 6 C6.5811138 13.08958838 6.5811138 13.08958838 4.125 16.9375 C1.37722199 19.60446101 0.553254 19.95824498 -3.3125 20.25 C-7.24058469 19.98368917 -8.95647943 19.43481646 -12 17 C-14.35452096 13.22631573 -14.21608994 10.42163744 -13.59375 6.12890625 C-13 4 -13 4 -10.9375 1.4375 C-7.14389674 -0.41894415 -4.14720686 -0.85457596 0 0 Z " fill="#07405F" transform="translate(343,417)"/>
<path d="M0 0 C3 1.4375 3 1.4375 5 4 C5.89214866 8.3028409 5.78461578 11.74461475 3.4375 15.5 C0.15734501 17.51855692 -2.1477443 18 -6 18 C-8.80189446 16.23358828 -10.51524911 14.96950178 -12 12 C-12.56872038 4.9478673 -12.56872038 4.9478673 -10.5 1.5 C-7.00562374 -0.59662576 -3.91186715 -0.7358958 0 0 Z " fill="#F1FAFB" transform="translate(582,475)"/>
</svg>
