<?xml version="1.0" encoding="UTF-8"?>
<svg version="1.1" xmlns="http://www.w3.org/2000/svg" width="742" height="530">
<path d="M488.69140625 45.96484375 C472.84800006 68.00668203 465.62347533 93.2726075 469.76977539 120.35302734 C473.6386929 141.69456134 485.00962806 160.19977699 500.125 175.4375 C500.69863281 176.01669189 501.27226562 176.59588379 501.86328125 177.19262695 C504.67077664 179.95314337 507.46346303 182.39432674 510.72265625 184.609375 C513.69068899 186.65827769 515.49565408 188.64453486 517.3125 191.8125 C518.01826172 192.99779297 518.01826172 192.99779297 518.73828125 194.20703125 C521.65205881 200.6570342 522.33480708 207.02327863 522.625 214 C522.66367187 214.77472656 522.70234375 215.54945313 522.7421875 216.34765625 C522.83521357 218.23143415 522.91863175 220.11568256 523 222 C522.18958252 221.97905273 521.37916504 221.95810547 520.54418945 221.93652344 C517.47082922 221.86741493 514.39787113 221.81775541 511.32397461 221.78027344 C509.36610224 221.75080673 507.40858901 221.69992242 505.45117188 221.6484375 C491.20930043 221.50348207 478.78667114 225.09024215 468.04296875 234.76171875 C466.89501743 235.91485269 465.76311632 237.08420377 464.6484375 238.26953125 C460.68104788 242.43435021 456.13818665 246.02976138 451.765625 249.7578125 C450.57274598 250.7758417 449.38004271 251.79407686 448.1875 252.8125 C447.58180176 253.32941406 446.97610352 253.84632813 446.35205078 254.37890625 C442.61023754 257.58417644 438.93931574 260.85166088 435.3125 264.1875 C430.84426963 268.28721653 426.23124793 272.15540587 421.5078125 275.95703125 C418.80453675 278.15923252 416.19992281 280.44980915 413.6328125 282.80859375 C410.01366179 285.44936161 406.32679738 286.25177433 401.91796875 286.4140625 C400.98662109 286.45273437 400.05527344 286.49140625 399.09570312 286.53125 C397.65614258 286.57765625 397.65614258 286.57765625 396.1875 286.625 C395.20845703 286.66367187 394.22941406 286.70234375 393.22070312 286.7421875 C390.81398626 286.83610816 388.40726988 286.92178201 386 287 C385.79375 286.4225 385.5875 285.845 385.375 285.25 C383.42647304 282.06150133 381.25405793 280.81654688 378 279 C374.43082342 278.45435671 374.43082342 278.45435671 370.6328125 278.609375 C369.95322479 278.61503479 369.27363708 278.62069458 368.57345581 278.62652588 C366.42322451 278.64874649 364.27471926 278.69890802 362.125 278.75 C360.6588784 278.77008386 359.19273042 278.78833132 357.7265625 278.8046875 C354.15048992 278.84856189 350.57541369 278.91748557 347 279 C347.00460896 277.90631922 347.00921793 276.81263844 347.01396656 275.68581581 C347.12501649 249.0611668 347.20715351 222.43654786 347.25906086 195.81171608 C347.28483076 182.9360798 347.31995842 170.06059661 347.37719727 157.18505859 C347.42706899 145.96135046 347.45929983 134.73775321 347.47044247 123.51393735 C347.47695475 117.57222793 347.4922358 111.63083571 347.52865028 105.68922806 C347.56266893 100.0930295 347.57304091 94.49727786 347.56553841 88.90098572 C347.56691031 86.85076339 347.57680747 84.80052561 347.59602737 82.75039291 C347.92996544 66.56090193 347.92996544 66.56090193 340.03932667 52.88390541 C332.592835 45.55974249 324.67069262 44.55449201 314.65846252 44.61231995 C312.97326922 44.60424164 312.97326922 44.60424164 311.2540316 44.59600013 C307.49940163 44.58172276 303.74512432 44.58882399 299.99047852 44.59594727 C297.29456471 44.59024361 294.59867599 44.58337973 291.902771 44.57514954 C285.34619969 44.55798049 278.7897243 44.55711754 272.23313636 44.56236244 C266.90253999 44.56640877 261.5719719 44.5649551 256.24137688 44.55961418 C255.48183496 44.55886576 254.72229305 44.55811734 253.93973471 44.55734624 C252.39658356 44.55581471 250.85343241 44.55427637 249.31028127 44.55273127 C234.84912819 44.53901318 220.38802926 44.54443914 205.92687743 44.55591648 C192.70613241 44.56584904 179.48552733 44.5529066 166.26480389 44.52898229 C152.67835351 44.50458202 139.09196829 44.49498564 125.50549644 44.50163502 C117.88226529 44.50512506 110.25914176 44.50290932 102.6359272 44.48538399 C96.14679389 44.47065042 89.65784399 44.47004159 83.16871423 44.4874549 C79.8601501 44.49595779 76.55198028 44.49595748 73.24342155 44.48280334 C69.65147942 44.46961364 66.06042516 44.48112466 62.46852112 44.49879456 C61.43018287 44.48918955 60.39184462 44.47958454 59.32204157 44.46968848 C50.31642338 44.56071944 43.20255964 47.17710339 36.50390625 53.28515625 C30.87622559 59.70217394 29.85150906 66.86093224 29.85955811 75.11454773 C29.85658698 76.05885063 29.85361586 77.00315352 29.8505547 77.97607166 C29.84185267 81.15422266 29.84035818 84.33233606 29.83886719 87.51049805 C29.83424004 89.78364645 29.82921552 92.05679408 29.82382202 94.3299408 C29.81068508 100.51605313 29.8042504 106.70215461 29.79981136 112.88827872 C29.79688239 116.75197035 29.79277789 120.615659 29.78830719 124.47934914 C29.77619604 135.17924124 29.76581507 145.87912971 29.7624321 156.57902813 C29.76221253 157.26389608 29.76199297 157.94876403 29.76176675 158.65438556 C29.76154847 159.34088551 29.76133019 160.02738547 29.7611053 160.73468846 C29.76066183 162.12577864 29.76021527 163.51686881 29.75976562 164.90795898 C29.7595442 165.59798662 29.75932277 166.28801426 29.75909463 166.99895183 C29.7551486 178.17401099 29.73770102 189.34900486 29.7144061 200.52403881 C29.69067609 212.00058496 29.6784873 223.47708369 29.67706418 234.95365745 C29.67601562 241.39594365 29.67009702 247.83813781 29.65224457 254.28040123 C29.63577452 260.3419444 29.63360331 266.40332625 29.64238358 272.4648838 C29.64315455 274.68847205 29.63880334 276.91206893 29.62892532 279.13563538 C29.61621992 282.17412706 29.62207533 285.21204623 29.63250732 288.25053406 C29.62445092 289.12788497 29.61639452 290.00523589 29.60809398 290.90917319 C29.66915 298.52723658 31.4288381 304.87683357 36.5625 310.75 C37.16191406 311.46671875 37.76132812 312.1834375 38.37890625 312.921875 C48.11501371 320.6411137 59.46301027 319.5229035 71.2265625 319.390625 C73.18524597 319.3831538 75.14393697 319.37746502 77.10263062 319.37347412 C82.22866884 319.35828701 87.35424529 319.31906563 92.48010254 319.2746582 C97.72234859 319.23355532 102.9646701 319.21543117 108.20703125 319.1953125 C118.47155575 319.15256406 128.7357393 319.08439761 139 319 C138.95812058 326.34700391 138.88558997 333.69326314 138.79248047 341.03979492 C138.76438268 343.53516915 138.74311293 346.03063052 138.72900391 348.52612305 C138.70741961 352.12854269 138.66068788 355.72992672 138.609375 359.33203125 C138.60814636 360.43456741 138.60691772 361.53710358 138.60565186 362.67304993 C138.413029 373.03036486 135.83798726 382.93804904 128.47265625 390.5859375 C119.86507482 398.58845085 110.85013192 398.43328355 99.66796875 398.3515625 C93.01636217 398.36280634 93.01636217 398.36280634 87.3203125 401.4140625 C84.62269746 404.42049542 84.08586298 405.25585422 83.625 409.25 C84.11927296 414.19272958 85.53828301 415.53828301 89 419 C97.28054967 423.14027483 113.58600854 420.92728694 122.3125 418.375 C124.23279789 417.64467394 126.13166785 416.85454965 128 416 C128.969375 415.56429688 129.93875 415.12859375 130.9375 414.6796875 C144.36767084 408.00109711 152.46858727 396.50455012 157.2734375 382.5078125 C158.56884525 378.0365664 159.12404067 373.95001692 159.11352539 369.29174805 C159.11344986 368.17096359 159.11337433 367.05017914 159.11329651 365.89543152 C159.10555458 364.0967437 159.10555458 364.0967437 159.09765625 362.26171875 C159.0962413 361.02581497 159.09482635 359.78991119 159.09336853 358.51655579 C159.08872618 355.24341655 159.07975311 351.97032713 159.06866455 348.69720459 C159.05840404 345.35217752 159.05394631 342.00714827 159.04882812 338.66210938 C159.03780907 332.10805099 159.02054953 325.55403516 159 319 C165.27 319 171.54 319 178 319 C177.98334541 321.64849472 177.98334541 321.64849472 177.96635437 324.35049438 C177.86506294 340.97781839 177.78977444 357.60506766 177.74093914 374.23262978 C177.71516381 382.78135194 177.68002631 391.3298437 177.62280273 399.87841797 C177.57294698 407.32987669 177.5407041 414.78116853 177.52955753 422.2327894 C177.52304235 426.17800263 177.50774454 430.12273848 177.47134972 434.06779861 C177.43735543 437.78282613 177.42695364 441.49718066 177.43446159 445.21234894 C177.43243494 447.22231133 177.40555766 449.23220078 177.37789917 451.24197388 C177.25476864 458.48117204 177.25476864 458.48117204 180.32063293 464.79086304 C183.69879502 467.57615619 185.63500391 468.07657888 190 468 C193.15826388 466.8677922 195.27687931 466.09526997 197.15293694 463.2537117 C198.2151138 460.42766423 198.24584546 458.1485285 198.24050903 455.12811279 C198.24325836 453.92780426 198.24600769 452.72749573 198.24884033 451.49081421 C198.24164978 450.17739044 198.23445923 448.86396667 198.22705078 447.51074219 C198.22648652 446.11115527 198.22680351 444.71156777 198.22793579 443.3119812 C198.22850974 439.51476663 198.21674861 435.71767834 198.20278788 431.92049313 C198.19028757 427.95133542 198.18911057 423.98217484 198.18673706 420.01300049 C198.18052023 412.49783751 198.16410667 404.9827327 198.14403808 397.46759534 C198.12168539 388.91144622 198.11068724 380.35529433 198.10064721 371.79912329 C198.07974062 354.19938163 198.04415795 336.59969762 198 319 C204.6 319 211.2 319 218 319 C217.97381592 320.71920654 217.94763184 322.43841309 217.9206543 324.2097168 C217.83946475 329.94114148 217.78232353 335.6725466 217.74093914 341.40437603 C217.71503509 344.8738384 217.67999927 348.3426688 217.62280273 351.81176758 C217.55720985 355.81597349 217.53366167 359.81953379 217.51171875 363.82421875 C217.48591232 365.04767502 217.4601059 366.27113129 217.43351746 367.53166199 C217.42879664 382.28510409 223.57855006 395.40543328 233.5 406.1875 C244.82048383 417.04627225 258.39665535 420.35718394 273.6875 420.3125 C274.80189453 420.32861328 275.91628906 420.34472656 277.06445312 420.36132812 C278.14017578 420.36197266 279.21589844 420.36261719 280.32421875 420.36328125 C281.29447998 420.36626221 282.26474121 420.36924316 283.2644043 420.37231445 C286.48769886 419.93362421 288.36667757 418.8759139 291 417 C293.56570589 413.57905881 293.43708054 410.15226516 293 406 C290.80443618 402.47141529 288.82976604 400.53574899 285 399 C282.45683031 398.71593656 282.45683031 398.71593656 279.7109375 398.76171875 C278.68613281 398.74560547 277.66132813 398.72949219 276.60546875 398.71289062 C274.47531984 398.69614822 272.34504828 398.69068279 270.21484375 398.69726562 C260.94256978 398.5178396 254.07506239 395.94495584 247.125 389.75 C241.41739642 383.59817255 238.92980587 375.85098739 238.79467773 367.58886719 C238.77449585 366.49300293 238.75431396 365.39713867 238.73352051 364.26806641 C238.70880676 362.54982666 238.70880676 362.54982666 238.68359375 360.796875 C238.65561707 359.21060303 238.65561707 359.21060303 238.6270752 357.59228516 C238.55881774 353.64494112 238.49864335 349.69746064 238.4375 345.75 C238.293125 336.9225 238.14875 328.095 238 319 C264.07 319 290.14 319 317 319 C316.94779297 332.43074219 316.94779297 332.43074219 316.89453125 346.1328125 C316.87725538 352.52299418 316.86187631 358.91315834 316.8492384 365.30334854 C316.83261118 373.58281867 316.81149842 381.86219818 316.77368164 390.14160156 C316.74375588 396.69651824 316.72441946 403.25136654 316.71773452 409.80634964 C316.71382761 413.2763623 316.70466193 416.74617939 316.68280983 420.2161293 C316.65859873 424.09220259 316.65803205 427.9680855 316.65942383 431.84423828 C316.648638 432.99150894 316.63785217 434.1387796 316.6267395 435.32081604 C316.65181815 441.7669472 316.95382227 446.66031035 321.5 451.64453125 C325.55790222 454.80419991 328.33911429 456.11319478 333.4362793 456.17700195 C334.33118576 456.18983719 335.22609222 456.20267242 336.14811707 456.21589661 C337.11373062 456.22328354 338.07934418 456.23067047 339.07421875 456.23828125 C340.07201859 456.246353 341.06981842 456.25442474 342.09785461 456.26274109 C344.21194728 456.27657609 346.32606224 456.28730085 348.44018555 456.29516602 C351.6578263 456.3123416 354.87442951 456.35622923 358.09179688 456.40039062 C360.14842996 456.41052123 362.20507177 456.41903618 364.26171875 456.42578125 C365.21721115 456.44328934 366.17270355 456.46079742 367.15715027 456.47883606 C373.17883355 456.45949108 378.0635786 455.65119154 383 452 C386.14871442 448.25826389 387.19996292 444.8574325 387 440 C400.86532432 440.44086882 409.74404162 443.86367551 420.87719727 451.78076172 C437.67561403 463.64197379 453.08106426 466.46565826 473.203125 466.29296875 C475.13653227 466.28736265 477.06994385 466.28309735 479.00335693 466.28010559 C484.05365081 466.26873658 489.10367943 466.23933915 494.15386963 466.20599365 C499.32259535 466.17512008 504.49136459 466.16156356 509.66015625 466.14648438 C519.77355305 466.11446072 529.88675433 466.06336224 540 466 C539.98114746 467.07523926 539.96229492 468.15047852 539.94287109 469.25830078 C539.92761777 470.6956334 539.91283148 472.13297102 539.8984375 473.5703125 C539.87801392 474.62859253 539.87801392 474.62859253 539.85717773 475.70825195 C539.75610638 489.21293937 545.94543007 501.30876459 554.96484375 511.12109375 C558.91214947 514.76534337 563.29112514 517.44855203 568 520 C568.78503906 520.43699219 569.57007813 520.87398437 570.37890625 521.32421875 C581.63553543 526.47372006 597.22583752 525.7409479 608.8125 521.9375 C620.96262692 516.76754135 630.21669125 507.4658588 635.9921875 495.65234375 C638.73004878 488.44688714 639.26927089 482.1352592 639.125 474.5 C639.11146484 473.12328125 639.11146484 473.12328125 639.09765625 471.71875 C639.07432432 469.47888444 639.04159235 467.23958817 639 465 C639.75023437 464.97421875 640.50046875 464.9484375 641.2734375 464.921875 C651.97291786 464.32895669 661.15916556 461.59682507 669 454 C676.59945485 445.04240964 679.55253153 436.94593317 679.3046875 425.2421875 C678.86683158 420.58295145 677.65460638 416.36303943 676 412 C676.65226563 411.46632813 677.30453125 410.93265625 677.9765625 410.3828125 C686.72764519 402.92244997 693.24311972 394.88151707 694.25 383.06640625 C694.60622959 373.61518991 692.26716488 366.32289366 688 358 C688.8971875 357.59974609 688.8971875 357.59974609 689.8125 357.19140625 C696.83915252 353.36439015 700.35443441 345.41939602 702.5859375 338.0703125 C704.56185578 328.19072108 702.9312681 317.03114057 697.3984375 308.54296875 C696.36473627 307.22267262 695.29345401 305.93010112 694.171875 304.68359375 C693 303 693 303 693 299 C694.0234375 296.66796875 694.0234375 296.66796875 695.375 294.1875 C700.66508575 284.45807328 701.90573262 273.24669143 699.08984375 262.5390625 C695.26060885 252.76281648 689.23989345 245.20443731 679.53271484 240.90795898 C671.15418778 237.82925986 663.61315346 237.51840001 654.75 237.75 C653.40757921 237.7701282 652.06512874 237.78836763 650.72265625 237.8046875 C647.48098838 237.8513302 644.24089944 237.91676868 641 238 C641.0195557 232.77057499 641.07168024 227.54280121 641.15258789 222.31396484 C641.17562899 220.53931704 641.19013066 218.76453518 641.19555664 216.98974609 C641.26440862 198.16667555 641.26440862 198.16667555 647 190 C647.5775 189.113125 648.155 188.22625 648.75 187.3125 C650.7708543 185.23551086 652.75706309 183.6153387 655.0625 181.875 C675.59711876 166.22156111 687.741007 145.04706836 693 120 C693.1750708 119.36924561 693.3501416 118.73849121 693.53051758 118.08862305 C696.21528636 106.14468289 694.48548359 91.5808003 691 80 C690.6596875 78.8553125 690.319375 77.710625 689.96875 76.53125 C685.72890971 63.58254857 679.0774215 52.17210127 670 42 C669.27425781 41.18015625 668.54851563 40.3603125 667.80078125 39.515625 C659.44574801 30.62200284 646.95510333 20.08078833 634.375 18.5625 C630.39393417 19.07856409 628.80865832 20.19134168 626 23 C624.5972364 25.8055272 624.85974269 28.14393118 624.84228516 31.28222656 C624.83720444 31.92637009 624.83212372 32.57051361 624.82688904 33.23417664 C624.81618062 34.63483567 624.80756229 36.03551187 624.80076981 37.43619537 C624.78898074 39.65602035 624.76952636 41.87565078 624.74765015 44.09539795 C624.68604644 50.40744511 624.63206009 56.71947412 624.59863281 63.03173828 C624.57763872 66.89214974 624.54229395 70.75220929 624.49787521 74.61241913 C624.48374797 76.0811116 624.47500018 77.54986638 624.47182083 79.01862335 C624.46688909 81.07951925 624.44367403 83.13948896 624.41650391 85.20019531 C624.40841705 86.37108704 624.4003302 87.54197876 624.39199829 88.74835205 C623.88611431 92.94468826 622.63499916 96.54571525 619.41625977 99.40869141 C618.84705811 99.71983887 618.27785645 100.03098633 617.69140625 100.3515625 C617.0363208 100.72240967 616.38123535 101.09325684 615.70629883 101.4753418 C614.99884521 101.854729 614.2913916 102.23411621 613.5625 102.625 C612.03528029 103.47575327 610.50929138 104.32871879 608.984375 105.18359375 C608.17806641 105.63202637 607.37175781 106.08045898 606.54101562 106.54248047 C603.86231428 108.07897615 601.25124217 109.69832382 598.640625 111.34765625 C597.7530249 111.90308105 596.8654248 112.45850586 595.95092773 113.03076172 C594.21902877 114.1182667 592.49426206 115.21723085 590.77758789 116.32861328 C589.5825061 117.06893799 589.5825061 117.06893799 588.36328125 117.82421875 C587.66501221 118.26854248 586.96674316 118.71286621 586.24731445 119.1706543 C583.08758971 120.33671458 581.23282978 119.89049215 578 119 C574.89135742 117.42114258 574.89135742 117.42114258 571.60546875 115.39453125 C570.71798698 114.85199959 570.71798698 114.85199959 569.81257629 114.29850769 C567.93185565 113.14547732 566.05982223 111.97910635 564.1875 110.8125 C562.94257891 110.04797809 561.69714002 109.28429867 560.45117188 108.52148438 C558.04652487 107.04548632 555.65080301 105.55660682 553.26318359 104.05322266 C551.24414049 102.7828237 549.21723899 101.52470871 547.17822266 100.28662109 C546.37304199 99.78340332 545.56786133 99.28018555 544.73828125 98.76171875 C544.05419189 98.34237061 543.37010254 97.92302246 542.6652832 97.4909668 C539.71513526 94.84963071 539.06496572 91.79368049 538.7484436 87.92675781 C538.74718475 86.78045898 538.7459259 85.63416016 538.74462891 84.453125 C538.73766998 83.14827148 538.73071106 81.84341797 538.72354126 80.49902344 C538.72456282 79.46062317 538.72456282 79.46062317 538.72560501 78.40124512 C538.72657435 76.22336542 538.71358152 74.04597372 538.69662476 71.86816406 C538.65046835 65.67907433 538.62574207 59.49003734 538.61914062 53.30078125 C538.6141211 49.50819356 538.5898546 45.71611961 538.55381393 41.92370605 C538.54403067 40.48208706 538.541676 39.04039729 538.54698563 37.59875488 C538.55406925 35.58144435 538.53466427 33.56409376 538.51416016 31.546875 C538.51131012 30.40057617 538.50846008 29.25427734 538.50552368 28.07324219 C537.89222795 24.34481881 536.6078976 22.68323035 534 20 C518.62307934 12.31153967 497.05441922 35.22452761 488.69140625 45.96484375 Z " fill="#093B5E" transform="translate(0,0)"/>
<path d="M0 0 C1.25847744 -0.00997172 1.25847744 -0.00997172 2.54237866 -0.02014488 C5.35813929 -0.03985445 8.17374102 -0.0452186 10.98956299 -0.05052185 C13.00670794 -0.06141571 15.02384881 -0.07308728 17.04098511 -0.08547974 C22.52457303 -0.1160044 28.00811896 -0.13300771 33.49177456 -0.14569592 C36.91777371 -0.15377833 40.34376077 -0.16395881 43.7697525 -0.17471123 C54.48904935 -0.20743494 65.20831687 -0.23133394 75.92765689 -0.24352509 C88.3013809 -0.25778111 100.67453467 -0.3016571 113.04806972 -0.37102658 C122.61253552 -0.4227988 132.17683911 -0.4476976 141.74144292 -0.45234722 C147.45397679 -0.45574629 153.16593411 -0.47061955 158.87831879 -0.51362801 C164.25312872 -0.55338594 169.62695977 -0.55978098 175.00187302 -0.54072762 C176.97231655 -0.53946167 178.94281015 -0.55013209 180.91311264 -0.57374191 C197.65704437 -0.76289773 197.65704437 -0.76289773 202.92443848 3.71426392 C205.83824335 6.97808811 206.87590236 9.15220801 206.8927002 13.51191711 C206.89841034 14.39789581 206.90412048 15.28387451 206.91000366 16.19670105 C206.91168045 17.65854324 206.91168045 17.65854324 206.91339111 19.1499176 C206.91835602 20.17445038 206.92332092 21.19898315 206.92843628 22.25456238 C206.94308418 25.65621097 206.94986481 29.05781291 206.9553833 32.45948792 C206.96113324 34.8188019 206.96689099 37.17811586 206.97265625 39.53742981 C206.98317417 44.49061807 206.98901144 49.44379006 206.99249268 54.39698792 C206.99797453 60.74355186 207.02199283 67.08990096 207.05046463 73.43639755 C207.06909145 78.31258267 207.07429667 83.18871609 207.07582855 88.06493378 C207.07885625 90.40449954 207.08688867 92.74406437 207.10001373 95.08359528 C207.11707233 98.35847277 207.11519402 101.63282617 207.10870361 104.9077301 C207.1179184 105.87419464 207.12713318 106.84065918 207.1366272 107.83641052 C207.09373183 114.74737404 205.94323796 119.00228579 201.02520752 124.13209534 C197.11478208 126.70744564 195.02766705 126.87181558 190.3850708 126.77589417 C189.70548309 126.76881943 189.02589539 126.76174469 188.32571411 126.75445557 C186.17506369 126.72667438 184.02710874 126.66398179 181.8772583 126.60011292 C180.41115033 126.57500833 178.94500115 126.55219894 177.4788208 126.53175354 C173.90243807 126.47690579 170.32761166 126.39075421 166.7522583 126.28761292 C166.77844238 127.25585999 166.80462646 128.22410706 166.831604 129.22169495 C166.92248755 132.83327388 166.9796438 136.44475295 167.0269165 140.05714417 C167.05197457 141.6168877 167.08603131 143.17651481 167.12945557 144.7358551 C167.19050023 146.98517135 167.21855256 149.23292852 167.24053955 151.48292542 C167.26634598 152.17379242 167.2921524 152.86465942 167.31874084 153.57646179 C167.32086742 157.29422518 166.77635631 159.7487929 164.53424072 162.65040588 C160.42948884 166.54154497 156.99353588 167.53461745 151.40791321 167.55503845 C149.82033455 167.5678334 149.82033455 167.5678334 148.20068359 167.58088684 C147.04989319 167.57998047 145.89910278 167.5790741 144.71343994 167.57814026 C143.49339767 167.58485748 142.27335541 167.59157471 141.01634216 167.59849548 C137.67742259 167.61422272 134.33875178 167.62084951 130.99981236 167.62212706 C128.91205424 167.62355066 126.82432203 167.62782416 124.73657036 167.63312149 C117.44824447 167.65161029 110.15999163 167.65979335 102.87164307 167.65821838 C96.08518456 167.65701657 89.29904388 167.67812942 82.51266581 167.70970571 C76.67895868 167.73587904 70.84535532 167.74658528 65.01158994 167.74530756 C61.53044571 167.74479833 58.04958419 167.75045993 54.56849861 167.77166367 C50.685697 167.79467016 46.80332983 167.78551863 42.92047119 167.77345276 C41.19732193 167.79031128 41.19732193 167.79031128 39.43936157 167.80751038 C33.24653398 167.75855522 29.42265932 167.51539037 24.7522583 163.28761292 C21.29062436 158.39357872 20.6287414 154.57298266 20.65460205 148.65089417 C20.65782471 147.3521637 20.66104736 146.05343323 20.66436768 144.71534729 C20.67272299 143.34360183 20.68118793 141.97185704 20.6897583 140.60011292 C20.69477495 139.21665096 20.69933757 137.83318728 20.70343018 136.44972229 C20.71523301 133.06230897 20.73169812 129.67498258 20.7522583 126.28761292 C19.93023926 126.30332336 19.10822021 126.31903381 18.2612915 126.33522034 C14.52918402 126.39766365 10.79718658 126.43663427 7.0647583 126.47511292 C5.77118408 126.50024963 4.47760986 126.52538635 3.14483643 126.55128479 C1.89766846 126.56095276 0.65050049 126.57062073 -0.63446045 126.58058167 C-2.35475464 126.60414734 -2.35475464 126.60414734 -4.10980225 126.62818909 C-9.49101797 126.04413899 -12.79369196 123.37675066 -16.17591 119.2084074 C-18.34143331 115.327644 -17.93913372 111.03293636 -17.89471436 106.69581604 C-17.90347595 105.64143845 -17.91223755 104.58706085 -17.92126465 103.50073242 C-17.94323197 100.02302129 -17.92871415 96.54658649 -17.9118042 93.06886292 C-17.91517307 90.64800269 -17.92002627 88.22714411 -17.92630005 85.80628967 C-17.93366782 80.73560972 -17.92296818 75.6653705 -17.89959717 70.59474182 C-17.87111036 64.09781563 -17.88751471 57.60192219 -17.91745949 51.10503387 C-17.93553449 46.10697154 -17.9297733 41.10915372 -17.91682053 36.11108398 C-17.91348712 33.71570717 -17.91757123 31.32030809 -17.92921829 28.92495728 C-17.94192943 25.57584403 -17.92254356 22.22839891 -17.89471436 18.87940979 C-17.90483551 17.89117722 -17.91495667 16.90294464 -17.92538452 15.88476562 C-17.85778836 11.48968744 -17.73689263 8.28534325 -14.95730591 4.75062561 C-10.10298769 0.33801662 -6.44601203 -0.00863529 0 0 Z " fill="#093A5B" transform="translate(94.24774169921875,88.71238708496094)"/>
<path d="M0 0 C0.9467489 -0.00583219 1.8934978 -0.01166439 2.86893606 -0.01767331 C3.91619313 -0.01389399 4.96345019 -0.01011467 6.04244232 -0.00622082 C7.14938273 -0.01004636 8.25632314 -0.01387191 9.39680719 -0.01781338 C13.13106855 -0.02818792 16.86517743 -0.0241428 20.59944916 -0.02018261 C23.26642117 -0.0245266 25.93338172 -0.02964366 28.60034943 -0.03567028 C35.10725106 -0.04844379 41.61411148 -0.05020771 48.12102354 -0.04787002 C53.40748199 -0.04608979 58.69392788 -0.04783013 63.98038483 -0.05209446 C65.10729653 -0.05298724 65.10729653 -0.05298724 66.25697413 -0.05389806 C67.7829866 -0.05510976 69.30899907 -0.0563239 70.83501154 -0.05754044 C85.15761597 -0.06842602 99.48019687 -0.06624857 113.80280262 -0.06015559 C126.91870289 -0.0549845 140.03452894 -0.06624513 153.15041453 -0.08525381 C166.60442219 -0.10460371 180.05839468 -0.1128933 193.51241636 -0.10913056 C201.07122203 -0.10721431 208.62996449 -0.10974724 216.18875885 -0.1238451 C222.62294636 -0.13572361 229.05703177 -0.13720366 235.49122059 -0.12505493 C238.77654191 -0.11914145 242.06163626 -0.11974356 245.34695244 -0.13005733 C248.90211991 -0.14041763 252.45677646 -0.13251076 256.01192474 -0.11974621 C257.58281034 -0.13080764 257.58281034 -0.13080764 259.185431 -0.14209253 C260.1321799 -0.13488598 261.0789288 -0.12767944 262.05436707 -0.12025452 C262.87575716 -0.12030953 263.69714725 -0.12036455 264.54342794 -0.12042123 C265.19806729 0.00329472 265.85270663 0.12701067 266.52718353 0.25447559 C269.09748846 4.10993298 268.81442401 7.27992859 268.8013382 11.75055408 C268.80657487 12.62825885 268.81181155 13.50596362 268.81720692 14.41026551 C268.83225584 17.36285704 268.83291314 20.31527602 268.83358002 23.26790333 C268.84119813 25.38005842 268.84962502 27.49221073 268.8588028 29.60435963 C268.88078703 35.35014039 268.88955179 41.09586793 268.89462924 46.84168601 C268.8982677 50.42862537 268.90450504 54.01555068 268.91163063 57.6024847 C268.93613724 70.10798858 268.94917997 82.61345089 268.95272064 95.11897755 C268.95635847 106.78939978 268.98626858 118.45955942 269.02812523 130.12990135 C269.06277067 140.13929255 269.07826807 150.14859647 269.07896668 160.15804726 C269.07976135 166.14085047 269.08858761 172.12338629 269.11696434 178.10612774 C269.143047 183.73110951 269.14540503 189.35560028 269.1293087 194.98061466 C269.12748648 197.04785891 269.13425415 199.11513076 269.15012741 201.18231487 C269.17044337 203.99926969 269.16012201 206.81448306 269.14191437 209.63141346 C269.15511434 210.45426962 269.1683143 211.27712578 269.18191427 212.12491697 C269.12331161 216.07960615 268.97369824 217.81504575 266.09813786 220.64497948 C265.24972293 221.1761132 264.401308 221.70724691 263.52718353 222.25447559 C260.86004113 225.87416885 260.18149925 228.85601991 259.52718353 233.25447559 C226.07361558 233.32309584 192.6200651 233.37598102 159.16644244 233.40767158 C155.21971344 233.41142384 151.27298459 233.41530679 147.3262558 233.41927052 C146.54051104 233.42005745 145.75476629 233.42084438 144.94521109 233.42165516 C132.21139241 233.4347201 119.47761424 233.45837991 106.74381962 233.48593398 C93.68425435 233.51395794 80.62471033 233.53064547 67.56511623 233.53674108 C59.50230492 233.54086379 51.43960807 233.55389937 43.37683199 233.57822499 C37.20122807 233.59591136 31.02571199 233.59784885 24.85008621 233.59379864 C22.31156139 233.5946271 19.77303242 233.60063574 17.23453331 233.61209202 C13.78034112 233.62692218 10.32664682 233.62346372 6.87244415 233.61523914 C5.85786328 233.62397767 4.8432824 233.63271619 3.79795665 233.64171952 C2.87585046 233.63574637 1.95374428 233.62977323 1.00369549 233.62361908 C-0.19299313 233.62532782 -0.19299313 233.62532782 -1.41385728 233.62707108 C-4.0428575 233.15131924 -4.91817136 232.40735762 -6.47281647 230.25447559 C-6.76581945 227.18603608 -6.8728475 224.32093494 -6.84703827 221.25140858 C-6.85299988 219.85310546 -6.85299988 219.85310546 -6.85908192 218.42655379 C-6.86873929 215.28953277 -6.85686599 212.15295887 -6.84513092 209.0159502 C-6.84755773 206.77247416 -6.85127597 204.52899919 -6.85619354 202.28552723 C-6.86562076 196.182402 -6.85616197 190.07943662 -6.84286141 183.97632384 C-6.83157076 177.60041791 -6.83565254 171.22452012 -6.83760834 164.84860706 C-6.83849201 154.141009 -6.82746568 143.43348895 -6.80899811 132.72591114 C-6.78998897 121.70147765 -6.78291158 110.67711766 -6.7884903 99.65266895 C-6.79518843 86.37673331 -6.79191025 73.10084711 -6.77938652 59.82491207 C-6.77473126 54.74957202 -6.77387067 49.67425194 -6.77597237 44.59891033 C-6.77785015 38.62768137 -6.76979079 32.65654726 -6.75391197 26.68533993 C-6.74965419 24.48826585 -6.74882853 22.29118217 -6.75160217 20.09410572 C-6.75480311 17.10615124 -6.7457952 14.1184839 -6.73351288 11.13055897 C-6.7372922 10.2512948 -6.74107153 9.37203063 -6.74496537 8.46612209 C-6.7006856 2.42002178 -6.3370035 0.00668716 0 0 Z M20.67767525 29.21914768 C19.32816936 31.60655037 19.14119926 33.0880218 19.1193161 35.81972218 C19.10507599 36.73080235 19.09083588 37.64188251 19.07616425 38.58057117 C19.07595276 39.57285221 19.07574127 40.56513325 19.07552338 41.58748341 C19.06384125 42.63835636 19.05215912 43.68922932 19.04012299 44.77194691 C19.0064933 48.25059059 18.99579481 51.72880859 18.98812103 55.20760059 C18.97594226 57.62652711 18.96345632 60.04545209 18.95067596 62.4643755 C18.92818574 67.53848625 18.91864446 72.61244669 18.91634369 77.6866045 C18.91106434 84.18132304 18.85975996 90.67478664 18.79682732 97.16916752 C18.75591444 102.1672858 18.74670112 107.16510229 18.74622726 112.16337299 C18.74084718 114.55714949 18.72400051 116.95092919 18.69537735 119.3445406 C18.65861938 122.69857433 18.66637869 126.04976654 18.68489838 129.40388966 C18.66444458 130.38807377 18.64399078 131.37225788 18.62291718 132.38626575 C18.72050771 138.83509198 20.26420171 142.1307637 24.73257637 146.78828526 C28.23434086 149.64921959 31.60753584 149.37175907 35.94515228 149.35213184 C37.19876556 149.34890919 38.45237885 149.34568653 39.74398041 149.34236622 C41.05431244 149.33398731 42.36464447 149.32560841 43.71468353 149.31697559 C45.04996834 149.31195877 46.38525494 149.30739618 47.72054291 149.30330372 C50.98946826 149.29150254 54.25830344 149.27503857 57.52718353 149.25447559 C57.51147308 150.09631397 57.49576263 150.93815235 57.47957611 151.80550098 C57.42816102 154.95700742 57.39069473 158.10829859 57.36238861 161.26009083 C57.34738944 162.61888676 57.32698315 163.97763501 57.30086517 165.3362627 C56.93107359 175.75086407 56.93107359 175.75086407 60.52718353 185.25447559 C64.58852994 189.01865032 67.0482421 190.37724634 72.51076508 190.39491749 C73.56502686 190.40062763 74.61928864 190.40633778 75.70549774 190.41222095 C76.86707397 190.41333881 78.02865021 190.41445667 79.22542572 190.41560841 C81.054832 190.42305576 81.054832 190.42305576 82.92119598 190.43065357 C86.27262921 190.44277634 89.62399992 190.45022437 92.97544765 190.45466423 C95.06971443 190.45759452 97.16397573 190.4616993 99.25823975 190.4661684 C105.81177519 190.47984721 112.36529811 190.48951122 118.91884685 190.49337029 C126.48155332 190.49784807 134.04407878 190.51538115 141.60673022 190.54437089 C147.4531042 190.56600263 153.29942732 190.57607542 159.14584088 190.57741141 C162.63704714 190.57845865 166.12808335 190.58434856 169.61924744 190.60223103 C173.51667843 190.62180521 177.41388427 190.61741676 181.31136322 190.61092091 C182.46484253 190.62013569 183.61832184 190.62935047 184.80675507 190.63884449 C191.83927443 190.60208835 196.56246656 190.03659212 201.87776947 185.04866505 C203.97389028 181.49773215 204.03648958 178.54864554 203.91780853 174.54744434 C203.91214874 173.8220496 203.90648895 173.09665485 203.90065765 172.34927845 C203.87837452 170.04615551 203.82819841 167.74462336 203.77718353 165.44197559 C203.75710787 163.87494087 203.73885896 162.30788161 203.72249603 160.74080372 C203.6785369 156.9114204 203.60956976 153.08321713 203.52718353 149.25447559 C204.42960785 149.28589649 205.33203217 149.31731739 206.26180267 149.34969044 C209.63720262 149.45246808 213.01092121 149.5274086 216.38729095 149.58406544 C217.84328836 149.614086 219.29910722 149.65491788 220.75447845 149.70711231 C230.39765115 150.34846346 230.39765115 150.34846346 238.89827728 146.54353809 C244.05291785 141.25209435 243.83779856 135.02791668 243.8653183 128.08333302 C243.8768544 127.06157475 243.8883905 126.03981647 243.90027618 124.98709583 C243.93454967 121.61136302 243.9530773 118.23581282 243.96858978 114.85994434 C243.97549269 113.7050633 243.98239559 112.55018227 243.98950768 111.36030483 C244.02532525 105.24975035 244.04887508 99.13928802 244.06258392 93.02864552 C244.07914049 86.72343726 244.13758496 80.41934877 244.20572758 74.11451721 C244.25053553 69.25968302 244.26408008 64.4051169 244.26920128 59.55009365 C244.27708933 57.22607783 244.29671762 54.90207047 244.32842445 52.57825756 C244.3699203 49.32255559 244.36702476 46.06967825 244.35359955 42.81380177 C244.37562439 41.85924091 244.39764923 40.90468006 244.42034149 39.92119312 C244.33084184 33.51485488 242.69240659 30.31835326 238.22469234 25.73090553 C234.62951428 22.60395356 231.04137794 23.10624843 226.50649261 23.10730457 C225.66780537 23.10362788 224.82911813 23.0999512 223.96501613 23.09616309 C221.13840177 23.08509903 218.31182414 23.08127781 215.48519135 23.07747364 C213.46509941 23.07121105 211.44500863 23.06456443 209.42491913 23.05756092 C203.92481412 23.04013228 198.42471781 23.0295941 192.92459202 23.02135539 C189.49024872 23.01620924 186.05590815 23.01013334 182.62156677 23.00384426 C171.88197528 22.98478708 161.14239069 22.970557 150.40278554 22.96223229 C137.99523384 22.95245661 125.58786039 22.92613057 113.18037152 22.8857314 C103.59730032 22.85559669 94.01428028 22.84076593 84.4311626 22.83745128 C78.70429254 22.83509779 72.97761279 22.82609846 67.25079346 22.8009901 C61.86308268 22.77775071 56.47568807 22.77345958 51.08794022 22.78375149 C49.11022771 22.78424796 47.13249987 22.77789476 45.15483475 22.76419544 C42.45477885 22.74653839 39.75586517 22.75355206 37.05580902 22.7667284 C36.27311496 22.75575916 35.4904209 22.74478991 34.68400884 22.73348826 C28.4506511 22.80693098 24.89713844 24.7369501 20.67767525 29.21914768 Z " fill="#36C0C4" transform="translate(57.472816467285156,65.7455244064331)"/>
<path d="M0 0 C0.77806503 -0.00671722 1.55613007 -0.01343445 2.35777283 -0.02035522 C4.91647825 -0.03927135 7.47492052 -0.04325606 10.03369141 -0.04541016 C11.82199204 -0.05184216 13.61029163 -0.05857082 15.39859009 -0.06558228 C19.1425419 -0.07753881 22.88640155 -0.08126474 26.63037109 -0.08007812 C31.41409574 -0.07987495 36.19722625 -0.10718309 40.98081017 -0.14162254 C44.6732756 -0.16392229 48.36559868 -0.16791474 52.05812454 -0.16685867 C53.82108229 -0.16920976 55.58404425 -0.17800546 57.34693527 -0.19352341 C59.81894645 -0.21324777 62.28968453 -0.20732109 64.76171875 -0.1953125 C65.84055077 -0.21217102 65.84055077 -0.21217102 66.94117737 -0.22937012 C73.82064908 -0.14498055 78.98683871 2.25606195 83.82666016 7.12231445 C86.05166049 10.35060486 87.52740869 13.33252124 88.94775391 16.98193359 C89.19517334 17.6084935 89.44259277 18.23505341 89.69750977 18.88059998 C90.47915369 20.86740675 91.24491318 22.85989192 92.01025391 24.85302734 C92.52223771 26.16137634 93.03525201 27.46932256 93.54931641 28.77685547 C94.5606957 31.35462257 95.56121 33.93620562 96.55322266 36.52148438 C97.51224365 39.01752785 98.497421 41.49741669 99.49853516 43.97753906 C99.95615234 45.12109863 100.41376953 46.2646582 100.88525391 47.44287109 C101.29517578 48.45212646 101.70509766 49.46138184 102.12744141 50.5012207 C103.02006953 53.32154047 103.32752093 55.35738112 103.01025391 58.29052734 C100.76246851 61.08088163 99.43295374 62.1496274 96.01025391 63.29052734 C84.4510405 64.14433288 73.23770998 62.80171697 64.01025391 55.29052734 C59.72429534 51.12866112 56.89756543 47.20241379 55.56103516 41.31005859 C55.39990234 40.60236328 55.23876953 39.89466797 55.07275391 39.16552734 C54.93998047 38.50294922 54.80720703 37.84037109 54.67041016 37.15771484 C53.84544105 34.82437028 52.98858509 33.7765341 51.01025391 32.29052734 C48.87173978 31.78022103 48.87173978 31.78022103 46.57275391 31.85302734 C45.81091797 31.83369141 45.04908203 31.81435547 44.26416016 31.79443359 C41.15549839 32.47866244 40.09016348 33.90947158 38.01025391 36.29052734 C36.69271798 38.76526318 36.69271798 38.76526318 35.67822266 41.50927734 C35.27595459 42.51829102 34.87368652 43.52730469 34.45922852 44.56689453 C34.04294189 45.63069336 33.62665527 46.69449219 33.19775391 47.79052734 C23.00112554 72.97319437 7.10514149 95.82006363 -18.31787109 107.32958984 C-26.73977171 110.88404866 -35.22893289 113.33160295 -44.2409668 114.87402344 C-47.43271874 115.46303588 -49.57347356 115.89806527 -51.97021484 118.15771484 C-53.55781836 121.47890841 -53.5276091 124.72364634 -52.98974609 128.29052734 C-51.26006897 132.03600339 -51.26006897 132.03600339 -47.98974609 134.29052734 C-41.32382276 134.97292251 -35.34659176 133.67893525 -28.98974609 131.79052734 C-28.079104 131.52353027 -27.16846191 131.2565332 -26.23022461 130.98144531 C2.63043725 122.1659165 24.57595974 104.00367717 40.01025391 78.29052734 C40.69819976 76.96804758 41.3771184 75.64010567 42.01025391 74.29052734 C42.34025391 74.95052734 42.67025391 75.61052734 43.01025391 76.29052734 C42.68025391 77.28052734 42.35025391 78.27052734 42.01025391 79.29052734 C41.13800513 89.68652962 40.45285946 101.08609279 46.01025391 110.29052734 C45.62353516 110.70302734 45.23681641 111.11552734 44.83837891 111.54052734 C37.0882584 120.13472038 33.49540824 129.36342686 33.68603516 141.02099609 C34.34396093 147.65574155 36.19855204 154.31628142 39.67822266 160.02880859 C41.01025391 162.29052734 41.01025391 162.29052734 40.51025391 164.54052734 C39.61190187 166.18750608 38.70665666 167.83079465 37.78759766 169.46630859 C37.34544922 170.25392578 36.90330078 171.04154297 36.44775391 171.85302734 C36.01333984 172.59681641 35.57892578 173.34060547 35.13134766 174.10693359 C32.79987394 178.64802701 32.82742953 183.00955878 32.82275391 188.04052734 C32.81050781 188.71857422 32.79826172 189.39662109 32.78564453 190.09521484 C32.78371094 190.77326172 32.78177734 191.45130859 32.77978516 192.14990234 C32.77567627 192.75286133 32.77156738 193.35582031 32.76733398 193.97705078 C33.00323881 196.22371824 33.4670092 198.24896379 34.0254364 200.43511963 C34.35042618 201.70740417 34.67541595 202.97968872 35.01025391 204.29052734 C24.65645782 204.36033142 14.30271861 204.41349208 3.94873428 204.44596386 C-0.86010864 204.46155619 -5.66878942 204.4826756 -10.47753906 204.5168457 C-15.12653425 204.5496703 -19.77537441 204.56742862 -24.42447662 204.57515907 C-26.18971442 204.58066142 -27.95494466 204.59140502 -29.72011566 204.60771751 C-49.29639212 204.78127599 -62.43759886 200.03307057 -78.51245117 188.89379883 C-91.02974202 180.30523079 -100.99125605 179.23161499 -116.98974609 178.29052734 C-116.98974609 141.33052734 -116.98974609 104.37052734 -116.98974609 66.29052734 C-106.59474609 65.79552734 -106.59474609 65.79552734 -95.98974609 65.29052734 C-84.46170999 62.40851832 -78.64682671 58.33804931 -70.28662109 50.37646484 C-67.44279335 47.67961774 -64.48813042 45.1785041 -61.42724609 42.72802734 C-57.47480505 39.55574882 -53.69836297 36.24214671 -49.98974609 32.79052734 C-46.28112922 29.33890798 -42.50468714 26.02530586 -38.55224609 22.85302734 C-33.67546558 18.93746734 -29.09795847 14.77018016 -24.57983398 10.45092773 C-17.09418928 3.38108655 -10.42538754 -0.01306467 0 0 Z " fill="#FCD833" transform="translate(503.98974609375,241.70947265625)"/>
<path d="M0 0 C5.61 0 11.22 0 17 0 C17.0093457 1.36729248 17.01869141 2.73458496 17.02832031 4.14331055 C17.06822903 9.222091 17.133991 14.30026626 17.20751953 19.37866211 C17.2357239 21.57552306 17.25694107 23.77248539 17.27099609 25.96948242 C17.29243249 29.1299223 17.3390878 32.28914396 17.390625 35.44921875 C17.39185364 36.42960617 17.39308228 37.40999359 17.39434814 38.42008972 C17.48786115 42.78580505 17.59071709 45.32768179 19.89941406 49.12011719 C22.30722885 51.27494911 23.30904295 51.65538745 26.5 51.5625 C27.2528125 51.56378906 28.005625 51.56507813 28.78125 51.56640625 C32.05211584 50.73141409 33.00187133 49.76835847 35 47 C35.63112126 43.45155749 35.60498816 39.92512027 35.609375 36.328125 C35.62591125 35.29057068 35.64244751 34.25301636 35.65948486 33.184021 C35.70803985 29.8726209 35.72935302 26.56168029 35.75 23.25 C35.77815332 21.00388304 35.80807984 18.75778755 35.83984375 16.51171875 C35.91380124 11.00785031 35.96333037 5.50423809 36 0 C40.62 0 45.24 0 50 0 C50.0093457 1.40282227 50.01869141 2.80564453 50.02832031 4.25097656 C50.06818564 9.45458762 50.13393537 14.65760531 50.20751953 19.86083984 C50.23574911 22.11304096 50.2569537 24.36534152 50.27099609 26.61767578 C50.2923976 29.85501083 50.33903495 33.09114774 50.390625 36.328125 C50.39185364 37.33554749 50.39308228 38.34296997 50.39434814 39.38092041 C50.43239746 44.88025416 50.43239746 44.88025416 52.91308594 49.63378906 C55.16631348 51.10887813 56.32832128 51.54174498 59 51.5 C59.66 51.5103125 60.32 51.520625 61 51.53125 C64.12821892 50.70031685 65.07699695 49.64744218 67 47 C67.63241429 43.45188366 67.60498831 39.92499448 67.609375 36.328125 C67.62591125 35.29057068 67.64244751 34.25301636 67.65948486 33.184021 C67.70803985 29.8726209 67.72935302 26.56168029 67.75 23.25 C67.77815332 21.00388304 67.80807984 18.75778755 67.83984375 16.51171875 C67.91380124 11.00785031 67.96333037 5.50423809 68 0 C72.62 0 77.24 0 82 0 C82.0093457 1.40282227 82.01869141 2.80564453 82.02832031 4.25097656 C82.06818564 9.45458762 82.13393537 14.65760531 82.20751953 19.86083984 C82.23574911 22.11304096 82.2569537 24.36534152 82.27099609 26.61767578 C82.2923976 29.85501083 82.33903495 33.09114774 82.390625 36.328125 C82.39185364 37.33554749 82.39308228 38.34296997 82.39434814 39.38092041 C82.44018473 44.8407011 82.44018473 44.8407011 84.82324219 49.60449219 C87.96347921 51.61768138 90.28103795 52 94 52 C96.80189446 50.23358828 98.51524911 48.96950178 100 46 C100.11786691 44.51987176 100.17692938 43.03483534 100.20532227 41.55029297 C100.22526749 40.62948944 100.24521271 39.70868591 100.26576233 38.75997925 C100.28247482 37.76410797 100.29918732 36.76823669 100.31640625 35.7421875 C100.3475779 34.21490524 100.3475779 34.21490524 100.37937927 32.6567688 C100.44489466 29.39624945 100.50376902 26.13564794 100.5625 22.875 C100.60568332 20.66796017 100.64929755 18.46092872 100.69335938 16.25390625 C100.8005781 10.83602225 100.90183996 5.41805539 101 0 C105.62 0 110.24 0 115 0 C115.0093457 1.40282227 115.01869141 2.80564453 115.02832031 4.25097656 C115.06818564 9.45458762 115.13393537 14.65760531 115.20751953 19.86083984 C115.23574911 22.11304096 115.2569537 24.36534152 115.27099609 26.61767578 C115.2923976 29.85501083 115.33903495 33.09114774 115.390625 36.328125 C115.39185364 37.33554749 115.39308228 38.34296997 115.39434814 39.38092041 C115.43287421 44.8809481 115.43287421 44.8809481 117.91308594 49.63598633 C120.18011273 51.11772225 121.31634177 51.5161228 124 51.4375 C124.66 51.43621094 125.32 51.43492187 126 51.43359375 C128.66533298 50.85575789 130.0028935 49.85113365 132 48 C132.61389083 45.77519252 132.61389083 45.77519252 132.54589844 43.25317383 C132.56561707 42.29240433 132.58533569 41.33163483 132.60565186 40.3417511 C132.60688049 39.30729355 132.60810913 38.272836 132.609375 37.20703125 C132.62591125 36.14586594 132.64244751 35.08470062 132.65948486 33.99137878 C132.70811283 30.59836119 132.72936917 27.20579224 132.75 23.8125 C132.77814721 21.51364912 132.80807287 19.21481928 132.83984375 16.91601562 C132.91387613 11.27738066 132.96336058 5.63899694 133 0 C137.62 0 142.24 0 147 0 C147.01981934 1.3725293 147.03963867 2.74505859 147.06005859 4.15917969 C147.13612345 9.25083786 147.22483979 14.3422106 147.31738281 19.43359375 C147.35566886 21.63731247 147.39052237 23.84109361 147.421875 26.04492188 C147.4675333 29.21246652 147.52552702 32.37958162 147.5859375 35.546875 C147.60326431 37.02519806 147.60326431 37.02519806 147.62094116 38.53338623 C147.6507457 39.91436493 147.6507457 39.91436493 147.68115234 41.32324219 C147.70113785 42.53569611 147.70113785 42.53569611 147.7215271 43.77264404 C148.03297046 46.26371309 148.67086172 47.87738901 150 50 C152.95757592 51.72525262 154.6945606 52.01832636 158.125 51.8125 C161.07339838 50.97925698 162.17751385 50.39800809 164 48 C165.17559215 45.6488157 165.15516463 44.17282086 165.20532227 41.55029297 C165.22526749 40.62948944 165.24521271 39.70868591 165.26576233 38.75997925 C165.28247482 37.76410797 165.29918732 36.76823669 165.31640625 35.7421875 C165.3475779 34.21490524 165.3475779 34.21490524 165.37937927 32.6567688 C165.44489466 29.39624945 165.50376902 26.13564794 165.5625 22.875 C165.60568332 20.66796017 165.64929755 18.46092872 165.69335938 16.25390625 C165.8005781 10.83602225 165.90183996 5.41805539 166 0 C171.61 0 177.22 0 183 0 C183 28.71 183 57.42 183 87 C167.16 87.495 167.16 87.495 151 88 C146.66666667 89.66666667 146.66666667 89.66666667 145 94 C144.67 105.22 144.34 116.44 144 128 C109.35 128 74.7 128 39 128 C38.67 116.78 38.34 105.56 38 94 C36.33333333 89.66666667 36.33333333 89.66666667 32 88 C21.44 87.67 10.88 87.34 0 87 C0 58.29 0 29.58 0 0 Z " fill="#FDD832" transform="translate(97,108)"/>
<path d="M0 0 C0.00879936 0.90962746 0.00879936 0.90962746 0.01777649 1.83763123 C0.08198945 8.18135978 0.16647961 14.52459406 0.26245117 20.86791992 C0.2955902 23.23146016 0.32365602 25.59507745 0.34643555 27.95874023 C0.38018423 31.36735694 0.43251129 34.77527463 0.48828125 38.18359375 C0.49467117 39.23083115 0.5010611 40.27806854 0.50764465 41.35704041 C0.68153322 50.14502642 2.01456411 57.79750099 8.1796875 64.39160156 C11.6214323 67.43267114 15.51305079 69.62765911 19.5 71.875 C21.29534792 72.91741797 23.08961508 73.9616995 24.8828125 75.0078125 C25.75711914 75.51473633 26.63142578 76.02166016 27.53222656 76.54394531 C30.87768164 78.51785648 34.1290733 80.61787629 37.375 82.75 C39.58206481 84.16864213 41.79038945 85.58532626 44 87 C44.58475098 87.38236816 45.16950195 87.76473633 45.77197266 88.15869141 C53.30998852 93.04508259 59.7235064 96.86617927 69 95 C75.80649185 92.19068206 82.15860203 88.2560925 88.4375 84.4375 C89.28715332 83.92082764 90.13680664 83.40415527 91.01220703 82.87182617 C92.78418248 81.79174783 94.55500919 80.70978272 96.32470703 79.62597656 C98.97285382 78.01649877 101.63865395 76.44018295 104.30859375 74.8671875 C105.99799975 73.84996065 107.68682393 72.83176674 109.375 71.8125 C110.54180298 71.13755493 110.54180298 71.13755493 111.73217773 70.44897461 C118.94632809 66.02439055 123.20801006 59.9595255 126 52 C126.32172853 49.39797181 126.32172853 49.39797181 126.31884766 46.65893555 C126.33871735 45.6182341 126.35858704 44.57753265 126.37905884 43.5052948 C126.39061005 42.3936647 126.40216125 41.28203461 126.4140625 40.13671875 C126.43342865 38.98959915 126.4527948 37.84247955 126.4727478 36.66059875 C126.53244467 33.0029744 126.57889002 29.34531841 126.625 25.6875 C126.66318883 23.20506453 126.70224108 20.72264218 126.7421875 18.24023438 C126.83813819 12.16027288 126.92321478 6.08023211 127 0 C128.11782408 0.95328816 129.23495986 1.90738345 130.35180664 2.86181641 C130.97398575 3.39304108 131.59616486 3.92426575 132.23719788 4.47158813 C146.77410068 17.07559764 154.73211927 35.91103072 156.2265625 54.875 C156.86746202 76.31600216 148.72093817 95.15761972 134.19921875 110.71484375 C133.11060547 111.84599609 133.11060547 111.84599609 132 113 C131.36707031 113.66128906 130.73414063 114.32257813 130.08203125 115.00390625 C126.576269 118.5870584 122.97890036 121.94642531 119 125 C118.34 125 117.68 125 117 125 C116.72800781 125.58910156 116.45601562 126.17820312 116.17578125 126.78515625 C115.02672347 128.94966045 113.7630779 130.57091826 112.1875 132.4375 C103.14253027 144.64218303 103.22812335 157.25333674 103.1875 171.8125 C103.1643114 173.77671994 103.13893717 175.74091535 103.11132812 177.70507812 C103.0490375 182.47014392 103.01625993 187.23456395 103 192 C100.24152154 192.08607353 97.48573148 192.14927334 94.7265625 192.19921875 C93.94611572 192.22592651 93.16566895 192.25263428 92.36157227 192.28015137 C86.55212034 192.35915991 86.55212034 192.35915991 83.703125 190.50585938 C82.375 188.8125 82.375 188.8125 81.3984375 187.01953125 C79.87586592 184.82073374 78.7313463 184.20936402 76.46020508 182.87402344 C73.32280249 180.66522771 73.06272211 180.28328216 72.17700195 176.28295898 C72.16332091 174.85392341 72.1856446 173.42422513 72.23828125 171.99609375 C72.23547653 171.23579361 72.23267181 170.47549347 72.2297821 169.69215393 C72.22451806 167.27248075 72.26503697 164.8566691 72.3125 162.4375 C72.34403132 160.01536485 72.3652757 157.59448182 72.36308289 155.1721344 C72.36321252 153.66835609 72.38337042 152.16441069 72.42610168 150.66123962 C72.44076392 147.17170344 72.26934493 145.3507829 70.11376953 142.54345703 C67.71601112 140.79263367 66.5063113 140.43239807 63.5625 140.4375 C62.45068359 140.40462891 62.45068359 140.40462891 61.31640625 140.37109375 C57.7871809 141.32928141 56.30720316 143.21013407 54 146 C53.22673831 149.36687898 53.22673831 149.36687898 53.29296875 153.05078125 C53.27028679 154.03899117 53.27028679 154.03899117 53.24714661 155.04716492 C53.20441434 157.135962 53.19544735 159.2233102 53.1875 161.3125 C53.16434386 162.73506417 53.13897617 164.15759417 53.11132812 165.58007812 C53.0444798 169.05416509 53.02338414 172.5242667 53 176 C43.76 176 34.52 176 25 176 C24.9175 172.638125 24.835 169.27625 24.75 165.8125 C24.28685802 153.70222784 22.56660247 142.87685364 15 133 C14.50886719 132.35804688 14.01773438 131.71609375 13.51171875 131.0546875 C10.25169981 127.08664535 6.70989555 123.87591509 2.6875 120.6875 C-14.18804725 107.13627396 -25.74113589 88.62933908 -28.71875 66.984375 C-30.51403335 47.93442394 -26.13401302 29.52603171 -14.625 14.0625 C-2.71323529 0 -2.71323529 0 0 0 Z " fill="#38C0C6" transform="translate(518,46)"/>
<path d="M0 0 C9.9 0 19.8 0 30 0 C30 44.88 30 89.76 30 136 C20.1 136 10.2 136 0 136 C0 91.12 0 46.24 0 0 Z " fill="#36BFC5" transform="translate(337,300)"/>
<path d="M0 0 C0.945336 -0.00861557 1.890672 -0.01723114 2.86465454 -0.02610779 C5.98573286 -0.04878664 9.10591453 -0.04202434 12.22705078 -0.03295898 C14.40032213 -0.03819432 16.5735912 -0.04447047 18.74685669 -0.05174255 C23.30139864 -0.06215081 27.85562825 -0.05757993 32.41015625 -0.04296875 C38.24002467 -0.02579518 44.06890621 -0.04925705 49.89866447 -0.08445835 C54.38720197 -0.10644676 58.87550397 -0.10498705 63.36407852 -0.09669304 C65.51302293 -0.09587403 67.66198472 -0.10272766 69.81087875 -0.11746407 C72.81984339 -0.13493265 75.82704304 -0.12034663 78.8359375 -0.09765625 C79.71928772 -0.10934845 80.60263794 -0.12104065 81.51275635 -0.13308716 C87.7465797 -0.03770132 90.83557052 1.42459025 95.54736328 5.53344727 C98.23877504 9.74609175 98.07991012 14.68227844 97.54736328 19.53344727 C95.91530238 24.77322173 94.22998871 27.65549119 89.54736328 30.53344727 C86.35986814 31.11894453 83.22087874 31.09038671 79.98706055 31.06689453 C79.03036469 31.0755101 78.07366882 31.08412567 77.08798218 31.09300232 C73.92963505 31.11568067 70.7721739 31.10891957 67.61376953 31.09985352 C65.41568233 31.10508843 63.21759739 31.11136443 61.01951599 31.11863708 C56.41370063 31.12904491 51.80819414 31.1244744 47.20239258 31.10986328 C41.30292809 31.09267939 35.40443789 31.11616462 29.50508213 31.15135288 C24.96597349 31.17332446 20.42709802 31.17188583 15.8879528 31.16358757 C13.71306223 31.16276784 11.53815457 31.16963526 9.36331367 31.1843586 C6.32062213 31.20179846 3.27968196 31.1872655 0.23706055 31.16455078 C-0.65923569 31.17624298 -1.55553192 31.18793518 -2.47898865 31.19998169 C-6.72780547 31.13551784 -9.56443963 30.88954482 -12.9410553 28.1736908 C-16.55931614 24.37007539 -18.21313922 21.38099938 -18.89013672 16.15844727 C-18.21966581 10.60311691 -16.32952664 6.49564775 -12.45822144 2.44837952 C-8.26533056 -0.22301481 -4.87609737 -0.03585854 0 0 Z " fill="#F9D736" transform="translate(575.45263671875,364.466552734375)"/>
<path d="M0 0 C1.10973679 0.01362579 2.21947357 0.02725159 3.36283875 0.04129028 C5.71074043 0.07673443 8.05850205 0.12281417 10.40600586 0.17871094 C13.98796491 0.25729139 17.56769082 0.28299956 21.15039062 0.3046875 C23.43365394 0.34573714 25.71686372 0.38990646 28 0.4375 C29.06688553 0.44095428 30.13377106 0.44440857 31.23298645 0.44796753 C37.43787398 0.64796815 41.00328483 1.49194258 45.48161316 5.90823364 C49.21005644 10.42355754 48.17939355 16.86409122 47.69921875 22.3828125 C46.26577601 26.7722667 43.76840692 30.16778701 39.69921875 32.3828125 C36.42557049 32.84271901 33.17079485 32.81301733 29.86938477 32.80273438 C28.87221436 32.81120392 27.87504395 32.81967346 26.84765625 32.82839966 C23.54934965 32.85181066 20.25150842 32.85279083 16.953125 32.8515625 C14.66153272 32.85866146 12.36994222 32.86636006 10.07835388 32.87463379 C5.27410949 32.88808796 0.47002946 32.88964305 -4.33422852 32.88378906 C-10.49272444 32.87789148 -16.65043243 32.90848346 -22.8087759 32.94890594 C-27.54169468 32.97474668 -32.27442282 32.97766363 -37.00740242 32.97401428 C-39.27802575 32.97570885 -41.54865757 32.98538352 -43.81921196 33.00315857 C-46.99386312 33.02527631 -50.1669074 33.01568202 -53.34155273 32.99804688 C-54.28041824 33.01131012 -55.21928375 33.02457336 -56.18659973 33.03823853 C-60.75295475 32.97925456 -62.6695158 32.88070563 -66.36073303 29.96936035 C-69.41880091 25.89222514 -69.46180128 23.60255938 -69.48828125 18.5078125 C-69.50246094 17.27289063 -69.51664063 16.03796875 -69.53125 14.765625 C-69.3184358 11.64194538 -68.95315351 9.98219654 -67.30078125 7.3828125 C-66.25921875 7.6715625 -65.21765625 7.9603125 -64.14453125 8.2578125 C-48.96648451 12.26970181 -32.76470866 14.18183181 -18.30078125 6.4453125 C-15.29645921 4.63600775 -15.29645921 4.63600775 -13.81958008 2.27783203 C-9.64545249 -0.8625749 -5.07113256 -0.11199744 0 0 Z " fill="#FCD732" transform="translate(634.30078125,312.6171875)"/>
<path d="M0 0 C1.27389084 -0.01292336 1.27389084 -0.01292336 2.57351685 -0.02610779 C5.38021348 -0.04880524 8.1859145 -0.0420211 10.99267578 -0.03295898 C12.94556983 -0.03819364 14.89846135 -0.04446954 16.85134888 -0.05174255 C20.94529105 -0.0621543 25.03888582 -0.05757526 29.1328125 -0.04296875 C34.37432279 -0.02579713 39.61473524 -0.04925214 44.85612297 -0.08445835 C48.88997639 -0.10644282 52.92356768 -0.10498802 56.95746231 -0.09669304 C58.8895297 -0.09587376 60.82161638 -0.10273268 62.75362778 -0.11746407 C65.45882878 -0.13492543 68.16206478 -0.12035415 70.8671875 -0.09765625 C71.66219666 -0.10934845 72.45720581 -0.12104065 73.27630615 -0.13308716 C79.02835128 -0.03511315 81.54437125 1.40347667 85.56298828 5.53344727 C87.64294469 9.22064272 88.06629795 12.33919999 87.56298828 16.53344727 C85.07988084 22.29425653 82.41188922 24.99689257 76.56298828 27.53344727 C73.72190081 27.92860657 71.26112816 28.12819654 68.42797852 28.12695312 C67.25584305 28.14968796 67.25584305 28.14968796 66.06002808 28.17288208 C63.49707753 28.21738633 60.93486372 28.23366177 58.37158203 28.24829102 C56.57990402 28.27091531 54.78824183 28.29482576 52.99659729 28.31996155 C49.2502642 28.36818925 45.5041299 28.40275234 41.75756836 28.42724609 C36.96333214 28.45941944 32.1701225 28.5227467 27.37635708 28.59593868 C23.67980151 28.6494329 19.98320837 28.68787312 16.28642464 28.72165108 C14.51899478 28.73931975 12.75160238 28.7612919 10.98428154 28.78770256 C8.51223945 28.82208988 6.04085119 28.83653825 3.56860352 28.84570312 C2.84376266 28.85955551 2.11892181 28.8734079 1.37211609 28.88768005 C-4.87768008 28.87397477 -8.69892063 27.08261541 -13.31201172 22.97094727 C-16.01081702 19.48861784 -16.02783144 16.15363491 -15.79638672 11.86547852 C-15.32350598 8.79689374 -14.40872331 6.92766848 -12.43701172 4.53344727 C-11.91493134 3.84062149 -11.39285095 3.14779572 -10.85494995 2.43397522 C-7.41721456 -0.26812532 -4.19316605 -0.03424546 0 0 Z " fill="#FCD731" transform="translate(571.43701171875,415.466552734375)"/>
<path d="M0 0 C0.01862806 2.24345797 0.03192688 4.48696062 0.04296875 6.73046875 C0.05094482 7.97981201 0.0589209 9.22915527 0.06713867 10.51635742 C-0.10645391 19.52360326 -3.44631062 27.36554495 -9.75 33.8125 C-18.63458067 39.79250622 -26.19753347 41.29260283 -37 40 C-45.48506262 37.62783196 -51.78507704 31.60378933 -56.125 24.0390625 C-58.65140905 18.47610411 -59.12353136 13.22960492 -59.0625 7.1875 C-59.05347656 6.02605469 -59.04445313 4.86460937 -59.03515625 3.66796875 C-59.02355469 2.78753906 -59.01195312 1.90710938 -59 1 C-39.31685395 0.08314384 -19.69915707 -0.12459329 0 0 Z " fill="#3BC0C6" transform="translate(619,464)"/>
<path d="M0 0 C7.31072407 -0.13943859 14.62115834 -0.24584038 21.93294621 -0.31087303 C25.32874305 -0.34209712 28.72362572 -0.38439934 32.11889648 -0.45263672 C36.0283691 -0.53071057 39.93748039 -0.55949206 43.84765625 -0.5859375 C45.05833267 -0.61690521 46.26900909 -0.64787292 47.51637268 -0.67977905 C56.95244793 -0.68352804 56.95244793 -0.68352804 61.23217773 2.88818359 C64.91332707 6.63878042 65.88201512 9.5605845 66.3125 14.8125 C66.13231175 20.78123576 64.41364638 25.37430666 60.5 29.875 C57.14533632 32.72646413 55.19276264 34.25340999 50.80395508 34.22705078 C49.96331009 34.22689972 49.1226651 34.22674866 48.25654602 34.22659302 C47.35333115 34.21627045 46.45011627 34.20594788 45.51953125 34.1953125 C44.12754768 34.19106766 44.12754768 34.19106766 42.70744324 34.18673706 C39.74233121 34.17553836 36.77752079 34.15043435 33.8125 34.125 C31.80273874 34.1149698 29.79297274 34.10584402 27.78320312 34.09765625 C22.85535247 34.07560004 17.92772738 34.04107229 13 34 C11.14415989 29.48113564 9.29286589 24.9604465 7.44580078 20.43798828 C6.81652116 18.89906336 6.18599189 17.36064882 5.55419922 15.82275391 C4.64744016 13.61493083 3.74515877 11.40532444 2.84375 9.1953125 C2.55939087 8.50567413 2.27503174 7.81603577 1.98205566 7.10549927 C0 2.22774341 0 2.22774341 0 0 Z " fill="#FAD937" transform="translate(614,259)"/>
<path d="M0 0 C2.75569447 2.18159145 4.43588747 3.87177494 6 7 C6.68128376 13.81283762 6.68128376 13.81283762 4.953125 16.82421875 C3.17156722 18.98828747 1.52390368 20.73804816 -1 22 C-7.10397596 22.50866466 -10.10769166 22.05703618 -15 18 C-16.85726616 14.28546768 -16.58501089 10.04420575 -16 6 C-11.50349752 0.20187838 -7.11273042 -1.13017478 0 0 Z " fill="#F2FAFC" transform="translate(596,464)"/>
<path d="M0 0 C2.44754681 2.12550118 3.72601984 3.73252168 4.41796875 6.93359375 C4.69608338 10.90988129 4.24545126 12.64297999 1.9375 16 C-1.74874118 18.50978123 -3.61738151 18.62608836 -8 18 C-12.6 15.8 -12.6 15.8 -14 13 C-14.69948799 5.88853879 -14.69948799 5.88853879 -11.6875 2.0625 C-7.54541166 -1.11631198 -4.96537322 -1.41867806 0 0 Z " fill="#093B5D" transform="translate(357,394)"/>
</svg>
